<svg width="107" height="135" viewBox="0 0 107 135" fill="none" xmlns="http://www.w3.org/2000/svg">
<g clip-path="url(#clip0_218_147)">
<path d="M102.061 123.68C105.041 115.003 100.307 105.536 91.6296 102.643C82.9519 99.5754 73.5728 104.309 70.5926 112.987C67.6124 121.664 72.3457 131.131 81.0235 134.024C89.7012 137.004 99.1679 132.358 102.061 123.68Z" fill="#5DA5A2"/>
<path d="M88.4741 106.938C87.4223 104.922 83.7408 104.834 80.2346 106.675C76.7285 108.516 74.7124 111.672 75.8519 113.688C76.9038 115.704 80.6729 115.791 84.1791 113.863C87.5976 112.022 89.526 108.867 88.4741 106.938Z" fill="#FEFEFE"/>
<path d="M75.3261 115.528C74.7125 115.178 73.836 115.528 73.3101 116.317C72.8718 117.106 72.9594 118.07 73.573 118.421C74.1866 118.772 75.0631 118.421 75.5891 117.632C76.115 116.843 75.9397 115.967 75.3261 115.528Z" fill="#FEFEFE"/>
</g>
<g clip-path="url(#clip1_218_147)">
<path d="M38.8728 72.5799C42.4114 62.2764 36.7913 51.0363 26.4879 47.6019C16.1845 43.9592 5.04843 49.5793 1.50987 59.8827C-2.02868 70.1862 3.59137 81.4263 13.8948 84.8607C24.1982 88.3993 35.4383 82.8833 38.8728 72.5799Z" fill="#5DA5A2"/>
<path d="M22.7413 52.7014C21.4924 50.3076 17.1212 50.2036 12.9582 52.3891C8.79523 54.5747 6.4015 58.3214 7.75448 60.7151C9.00338 63.1089 13.4786 63.2129 17.6416 60.9233C21.7005 58.7377 23.9902 54.991 22.7413 52.7014Z" fill="#FEFEFE"/>
<path d="M7.13009 62.9006C6.40157 62.4843 5.36082 62.9006 4.73637 63.8373C4.21599 64.774 4.32007 65.9188 5.04859 66.3351C5.77712 66.7514 6.81787 66.3351 7.44232 65.3984C8.06677 64.4618 7.85862 63.421 7.13009 62.9006Z" fill="#FEFEFE"/>
</g>
<g clip-path="url(#clip2_218_147)">
<path d="M104.889 41.216C110.472 24.9595 101.605 7.22509 85.3481 1.80625C69.0916 -3.94101 51.5214 4.92619 45.9383 21.1827C40.3553 37.4392 49.2225 55.1736 65.479 60.5925C81.7355 66.1755 99.4699 57.4725 104.889 41.216Z" fill="#5DA5A2"/>
<path d="M79.4367 9.85244C77.4662 6.07567 70.5695 5.91147 64.0012 9.35982C57.4329 12.8082 53.6561 18.7196 55.7908 22.4964C57.7613 26.2732 64.8222 26.4374 71.3905 22.8248C77.7946 19.3765 81.4072 13.465 79.4367 9.85244Z" fill="#FEFEFE"/>
<path d="M54.8055 25.9447C53.6561 25.2878 52.014 25.9447 51.0288 27.4225C50.2077 28.9004 50.3719 30.7067 51.5214 31.3635C52.6708 32.0203 54.3129 31.3635 55.2982 29.8856C56.2834 28.4078 55.955 26.7657 54.8055 25.9447Z" fill="#FEFEFE"/>
</g>
<defs>
<clipPath id="clip0_218_147">
<rect width="33.221" height="33.221" fill="white" transform="translate(69.7163 101.679)"/>
</clipPath>
<clipPath id="clip1_218_147">
<rect width="39.4444" height="39.4444" fill="white" transform="translate(0.469238 46.4568)"/>
</clipPath>
<clipPath id="clip2_218_147">
<rect width="62.2346" height="62.2346" fill="white" transform="translate(44.2964)"/>
</clipPath>
</defs>
</svg>
