<svg width="571" height="326" viewBox="0 0 571 326" fill="none" xmlns="http://www.w3.org/2000/svg">
<g clip-path="url(#clip0_273_27)">
<path d="M517.097 26.4944C514.051 30.3816 514.788 36.0307 518.691 39.0324C522.563 42.1232 528.167 41.3706 531.213 37.4833C534.26 33.5961 533.522 27.947 529.62 24.9453C525.732 21.899 520.099 22.5917 517.097 26.4944Z" fill="#5DA5A2"/>
<path d="M521.053 37.4044C521.232 38.6152 523.089 39.3092 525.197 38.9916C527.305 38.6739 528.886 37.4248 528.663 36.1986C528.483 34.9878 526.582 34.2784 524.459 34.6406C522.396 34.9737 520.858 36.2382 521.053 37.4044Z" fill="#FEFEFE"/>
<path d="M529.255 35.3555C529.505 35.642 530.013 35.6183 530.419 35.3099C530.781 34.9861 530.907 34.4803 530.657 34.1938C530.407 33.9072 529.899 33.9309 529.492 34.2393C529.086 34.5477 529.02 35.0244 529.255 35.3555Z" fill="#FEFEFE"/>
</g>
<g clip-path="url(#clip1_273_27)">
<path d="M540.217 63.6269C536.6 68.2424 537.475 74.9497 542.109 78.5137C546.706 82.1836 553.361 81.2899 556.978 76.6744C560.595 72.059 559.719 65.3517 555.085 61.7876C550.47 58.1707 543.781 58.9931 540.217 63.6269Z" fill="#5DA5A2"/>
<path d="M544.914 76.5811C545.127 78.0187 547.331 78.8427 549.834 78.4656C552.337 78.0885 554.215 76.6054 553.949 75.1494C553.736 73.7118 551.479 72.8695 548.958 73.2996C546.508 73.695 544.683 75.1965 544.914 76.5811Z" fill="#FEFEFE"/>
<path d="M554.652 74.1484C554.949 74.4886 555.552 74.4605 556.035 74.0943C556.464 73.7098 556.614 73.1092 556.316 72.769C556.019 72.4288 555.417 72.4569 554.934 72.8231C554.451 73.1893 554.373 73.7553 554.652 74.1484Z" fill="#FEFEFE"/>
</g>
<g clip-path="url(#clip2_273_27)">
<path d="M501.113 67.9311C495.406 75.2133 496.787 85.7959 504.098 91.4191C511.352 97.2094 521.851 95.7994 527.557 88.5172C533.264 81.235 531.883 70.6523 524.572 65.0291C517.29 59.3224 506.736 60.6199 501.113 67.9311Z" fill="#5DA5A2"/>
<path d="M508.524 88.37C508.86 90.6381 512.338 91.9382 516.287 91.3432C520.235 90.7482 523.199 88.4082 522.779 86.111C522.443 83.8428 518.882 82.5138 514.904 83.1923C511.039 83.8163 508.159 86.1853 508.524 88.37Z" fill="#FEFEFE"/>
<path d="M523.888 84.5313C524.357 85.0681 525.308 85.0237 526.07 84.4459C526.748 83.8392 526.983 82.8917 526.514 82.3549C526.046 81.8181 525.095 81.8625 524.333 82.4403C523.571 83.018 523.449 83.911 523.888 84.5313Z" fill="#FEFEFE"/>
</g>
<g opacity="0.2" clip-path="url(#clip3_273_27)" filter="url(#filter0_d_273_27)">
<path d="M217.639 0.557363C216.804 0.696703 216.108 0.975385 215.412 1.11473C214.716 1.39341 214.02 1.67209 213.185 2.09011C211.933 2.78681 210.82 3.62286 209.706 4.73758C208.732 5.71297 208.036 6.82769 207.341 8.2211C206.784 9.33582 206.227 10.7292 206.088 12.262C205.81 13.6554 205.81 15.0488 205.949 16.5815C206.088 17.9749 206.506 19.5077 207.062 20.9011C207.619 22.2945 208.593 23.6879 209.567 24.942C210.124 25.6387 210.681 26.196 211.376 26.7534C212.072 27.4501 212.907 27.8681 213.603 28.2862C214.855 29.1222 216.247 29.6796 218.056 30.2369C219.448 30.6549 220.978 30.9336 222.788 31.073C223.901 31.2123 224.875 31.2123 226.127 31.2123C228.354 31.2123 230.581 31.073 232.668 30.9336C234.199 30.7943 235.73 30.6549 237.26 30.6549C238.095 30.6549 238.791 30.5156 239.487 30.5156C239.765 30.5156 240.044 30.5156 240.322 30.5156C240.879 30.5156 241.574 30.5156 242.131 30.5156C243.105 30.5156 243.94 30.6549 244.914 30.7943C246.445 30.9336 247.837 31.073 249.367 31.491C251.733 32.0484 253.96 32.7451 256.047 33.7204C257.16 34.2778 258.274 34.8352 259.387 35.5319C260.361 36.0892 261.335 36.7859 262.17 37.4826C263.144 38.1793 264.118 39.0154 264.953 39.9908L265.093 40.1301C265.093 40.1301 265.093 40.1301 265.093 39.9908C264.675 38.3187 264.258 36.3679 263.701 34.4171C263.144 32.6057 262.588 30.7943 261.753 28.9829C260.222 25.36 258.413 22.0158 256.047 18.811C251.872 13.098 246.028 8.08176 239.209 4.4589C235.73 2.64747 232.251 1.25407 228.632 0.557363C226.684 0.139341 224.875 0 222.927 0C221.118 0 219.309 0.139341 217.639 0.557363Z" fill="#01C0B9"/>
<path d="M223.066 4.73749C222.231 4.73749 221.396 4.87683 220.561 5.15551C220.561 5.15551 220.561 5.15551 220.422 5.15551C220.004 5.15551 219.587 5.43419 219.448 5.85221C219.169 6.27023 219.03 6.68826 219.169 7.10628C219.308 7.5243 219.448 7.94232 219.865 8.08166C220.004 8.08166 220.143 8.221 220.283 8.221C220.561 8.36035 220.7 8.36034 220.978 8.36034C221.813 8.49969 222.509 8.63903 223.344 8.63903C224.179 8.77837 225.153 8.77837 225.988 8.91771C227.797 9.19639 229.606 9.47507 231.416 9.89309C233.503 10.4505 235.73 11.0078 237.817 11.8439C238.93 12.2619 240.044 12.6799 241.157 13.2373C242.131 13.6553 243.105 14.2127 244.079 14.77C245.332 15.4667 246.445 16.1634 247.558 16.8601C248.672 17.5568 249.646 18.3929 250.62 19.3683C251.872 20.6223 252.986 21.8764 253.96 23.4091C254.099 23.6878 254.238 23.9665 254.377 24.2452C254.516 24.3845 254.655 24.5239 254.795 24.3845C254.934 24.2452 255.073 24.1058 254.934 23.9665C254.238 22.7124 253.403 21.319 252.568 20.2043C251.733 18.9502 250.62 17.6962 249.646 16.5814C248.532 15.3274 247.28 14.2127 246.167 13.2373C244.914 12.1225 243.523 11.2865 242.131 10.3111C239.209 8.49969 236.147 7.10628 232.946 6.13089C231.276 5.57353 229.606 5.29485 227.937 5.01617C226.823 4.87683 225.849 4.73749 224.736 4.73749C224.179 4.73749 223.623 4.73749 223.066 4.73749ZM243.94 14.77C243.94 14.77 244.079 14.77 244.079 14.9094C244.079 14.9094 243.94 14.9094 243.94 14.77Z" fill="#FEFEFE"/>
<path d="M213.881 6.27032C213.464 6.549 213.325 6.96702 213.325 7.38504C213.185 8.22109 213.881 9.19647 214.855 9.19647C215.273 9.19647 215.69 9.05713 216.108 8.77845C216.525 8.49977 216.664 8.08175 216.664 7.66372C216.804 6.82768 216.108 5.85229 215.134 5.85229C214.716 5.85229 214.299 5.99164 213.881 6.27032Z" fill="#FEFEFE"/>
<path d="M275.53 5.71282C275.252 5.85216 274.834 5.99151 274.556 6.13085C274.278 6.27019 273.86 6.54887 273.582 6.68821C272.19 7.66359 271.216 8.91766 270.381 10.0324C269.685 11.0078 269.129 12.1225 268.572 13.2372C268.015 14.3519 267.737 15.7454 267.32 17.2781C266.763 20.0649 266.763 22.9911 267.18 26.3352C267.598 29.2614 268.294 32.3269 269.546 35.253C270.659 38.0399 272.051 40.548 273.86 42.7774C273.721 41.9414 273.721 41.1054 273.721 40.2693C273.86 38.4579 274.278 36.6465 274.834 34.9744C275.391 33.3023 275.948 31.7695 276.643 30.2368C277.2 28.8434 277.757 27.45 278.313 26.0566C279.148 23.9665 279.983 21.8763 280.818 19.7862C281.236 18.5322 281.653 17.1388 281.931 15.606C282.21 14.0733 282.349 12.6799 282.349 11.4258C282.349 9.89304 281.931 8.63898 281.236 7.52425C280.54 6.40953 279.148 5.57348 277.757 5.43414C277.478 5.43414 277.339 5.43414 277.061 5.43414C276.504 5.57348 275.948 5.57348 275.53 5.71282Z" fill="#01C0B9"/>
<path d="M272.607 11.844C272.468 11.844 272.329 11.9833 272.051 11.9833C271.912 12.1227 271.772 12.262 271.772 12.4014C271.216 13.3767 270.798 14.4915 270.381 15.7455C270.103 16.9996 269.824 18.2537 269.685 19.5077C269.546 20.7618 269.546 22.0159 269.546 23.2699C269.546 24.524 269.685 25.7781 269.685 27.0321C269.685 27.1715 269.963 27.3108 270.103 27.3108C270.242 27.3108 270.381 27.1715 270.381 26.8928C270.381 26.6141 270.381 26.1961 270.381 25.9174C270.381 23.2699 270.659 20.4831 271.355 17.975C271.772 16.7209 272.329 15.4668 272.886 14.3521C273.025 14.0734 273.303 13.7948 273.442 13.5161C273.582 13.2374 273.721 13.0981 273.721 12.68C273.721 12.4014 273.582 12.1227 273.303 11.9833C273.164 11.844 272.886 11.7047 272.607 11.7047C272.747 11.844 272.607 11.844 272.607 11.844Z" fill="#FEFEFE"/>
<path d="M236.843 38.7368C235.034 38.8761 233.225 39.1548 231.555 39.5728C229.05 40.2695 226.406 41.5236 224.179 43.1957C222.927 44.0317 221.953 45.1464 221.257 46.1218C220.422 47.2365 219.865 48.6299 219.726 49.884C219.587 51.2774 220.004 52.6708 220.7 54.0642C221.118 54.7609 221.535 55.3183 221.953 55.7363C222.231 56.015 222.509 56.1543 222.788 56.433C223.066 56.7117 223.483 56.851 223.762 56.9904C224.179 57.2691 224.736 57.4084 225.432 57.5477C225.71 57.5477 226.128 57.6871 226.406 57.6871C226.684 57.6871 227.102 57.6871 227.38 57.6871C228.076 57.6871 228.632 57.4084 229.05 57.4084C229.746 57.2691 230.442 56.9904 231.137 56.7117C233.503 55.7363 235.591 54.2036 237.678 52.8102L238.235 52.3921L238.93 51.8348C239.348 51.5561 239.905 51.1381 240.322 50.8594C241.714 50.0233 243.244 49.3266 245.053 48.7693H245.193C245.471 48.7693 245.61 48.6299 245.888 48.6299C246.445 48.4906 247.002 48.3513 247.419 48.2119C248.95 47.9332 250.481 47.7939 252.151 47.7939C252.29 47.7939 252.429 47.7939 252.568 47.7939C254.238 47.7939 255.908 48.0726 257.439 48.4906C258.274 48.7693 258.97 49.048 259.665 49.466C259.944 49.6053 260.222 49.7447 260.5 49.884C259.805 48.4906 258.83 47.0972 257.439 45.8431C256.186 44.7284 254.795 43.6137 252.986 42.6383C249.924 40.8269 246.167 39.7121 242.27 39.1548C241.018 39.0154 239.765 38.8761 238.513 38.8761C238.235 38.7368 237.539 38.7368 236.843 38.7368Z" fill="#01C0B9"/>
<path d="M234.199 41.8022C232.529 42.0809 230.859 42.7776 229.189 43.4743C228.354 43.8923 227.519 44.3103 226.684 44.7283C225.849 45.1463 225.153 45.7037 224.457 46.1217C223.761 46.5398 223.622 47.5151 224.04 48.2118C224.596 49.0479 225.849 49.1872 226.406 48.3512C226.684 47.9332 227.101 47.6545 227.38 47.2365C227.519 47.0971 227.658 47.0971 227.658 46.9578C228.215 46.4004 228.771 45.9824 229.467 45.5644C230.024 45.1464 230.72 44.8677 231.276 44.4496C232.111 44.0316 232.946 43.7529 233.781 43.3349C234.755 43.0562 235.59 42.6382 236.564 42.4989C236.564 42.4989 236.564 42.4989 236.425 42.4989C238.095 42.2202 239.626 42.0809 241.296 42.0809C241.296 42.0809 241.296 42.0809 241.435 42.0809C242.409 42.0809 243.383 42.2202 244.357 42.4989C244.496 42.4989 244.775 42.3595 244.775 42.2202C244.775 42.0809 244.636 41.8022 244.496 41.8022C242.827 41.3842 241.157 41.2448 239.487 41.2448C239.348 41.2448 239.348 41.2448 239.208 41.2448C237.678 41.3842 235.868 41.5235 234.199 41.8022ZM228.075 46.8184L227.936 46.9578C227.936 46.9578 227.936 46.8184 228.075 46.8184Z" fill="#FEFEFE"/>
<path d="M359.444 16.1636C353.877 16.8603 348.311 17.8356 342.327 19.229C331.472 21.7372 320.339 25.36 309.067 30.0976C303.64 32.3271 298.491 34.8352 293.62 37.4827C288.611 40.1301 283.462 43.0563 278.034 46.6792C268.711 52.6708 259.387 59.7772 249.646 68.277C245.332 72.0392 241.018 75.9407 236.425 80.5389C232.668 84.1618 228.771 88.2027 223.622 93.637C220.561 96.8418 217.638 100.047 214.716 103.251C210.124 108.268 205.531 113.284 200.661 118.3C191.754 127.497 183.961 134.742 176.029 140.873L175.89 141.013L175.751 141.152C162.391 151.463 150.563 158.57 138.734 163.725H138.873C134.837 165.397 130.802 166.791 126.766 168.045C122.591 169.299 118.138 170.135 113.546 170.832C109.788 171.25 106.17 171.528 102.413 171.528H102.135C98.6555 171.528 95.0373 171.25 91.1408 170.832C89.61 170.692 88.2184 170.414 86.6876 170.135C88.7751 167.069 90.7233 164.004 92.5324 160.938C94.3415 157.594 96.0115 153.971 97.4031 149.513C100.047 141.57 101.439 133.349 101.3 125.267C101.3 121.644 101.021 117.882 100.465 114.259C100.186 112.727 99.908 111.055 99.6297 109.522C98.6555 103.948 97.5422 99.4893 96.1506 95.4484C95.3157 92.8009 94.3415 90.8501 93.3674 89.0387C92.5324 87.6453 91.28 85.6945 89.4709 84.4405C88.6359 83.8831 87.8009 83.4651 86.8268 83.3257C86.5485 83.1864 86.131 83.1864 85.7135 83.1864C85.1569 83.1864 84.6002 83.3258 84.0436 83.4651C83.3478 83.6044 82.652 84.0225 81.817 84.7192C80.982 85.4159 80.2862 86.2519 79.5904 86.9486C77.9205 88.8994 76.5289 91.2682 75.5547 93.2189C74.4415 95.309 73.189 97.6778 71.9365 100.604C71.1016 102.555 70.2666 104.506 69.1533 107.292L69.0142 107.85C68.4575 109.243 67.7617 110.776 67.2051 112.169C64.4218 119.554 62.8911 126.939 62.6127 134.324C62.3344 142.128 63.726 149.513 66.5093 156.34C63.1694 152.717 59.6904 149.095 55.7938 145.472C53.0106 142.824 50.0882 140.316 47.1658 137.669C43.6868 134.603 41.0428 132.513 38.5378 130.562C35.198 128.054 31.9973 125.964 28.7966 124.292C25.3175 122.48 21.8385 121.226 18.4986 120.669C17.107 120.39 15.7154 120.251 14.1846 120.251C13.9063 120.251 13.628 120.251 13.3497 120.251C11.958 120.251 10.7056 120.53 9.45314 120.948C7.50488 121.644 5.97411 123.177 5.2783 124.989C4.72166 126.661 4.72166 128.611 5.13914 131.259C5.55662 133.767 6.39159 136.136 7.22656 138.365C7.50488 139.062 7.78321 139.898 8.06153 140.595L8.47901 141.849C8.75733 142.406 8.8965 143.103 9.17482 143.66C9.45314 144.357 9.73146 145.054 9.87062 145.75C10.9839 148.816 12.3755 151.881 13.9063 154.668C15.4371 157.455 17.2462 159.963 19.0553 162.332C20.8644 164.561 22.9518 166.651 25.1784 168.602C29.214 172.086 34.0847 175.012 39.6511 177.381C44.6609 179.471 50.2274 181.004 56.6288 182.258C62.1953 183.233 68.04 183.79 75.1373 184.208C75.4156 184.208 75.8331 184.208 76.1114 184.208H76.2505C82.9303 195.356 89.1926 205.109 95.4548 213.888C102.691 223.92 110.484 233.396 118.416 241.895C125.792 249.838 134.142 257.502 142.909 264.747C149.589 270.182 156.547 275.337 163.783 280.075C165.453 280.771 167.123 281.329 168.793 282.026C175.194 284.255 181.596 286.206 188.136 287.738C194.677 289.271 201.217 290.247 207.897 290.943C207.758 290.943 207.758 290.943 207.619 290.943C213.464 291.501 219.447 291.64 225.431 291.361C230.998 291.083 236.704 290.525 242.131 289.55C247.141 288.714 252.011 287.46 256.743 285.927C261.474 284.394 266.206 282.583 270.659 280.353C275.112 278.124 279.565 275.755 283.74 272.968C288.054 270.182 292.09 266.977 295.986 263.633C300.996 259.313 305.588 254.715 310.042 249.838C316.304 243.01 322.009 235.904 327.715 228.658C333.421 221.412 338.987 214.167 344.971 207.2C350.816 200.233 357.078 193.405 363.897 187.274C367.237 184.348 370.577 181.422 374.195 178.774C377.813 176.127 381.71 173.618 385.606 171.25C401.331 162.053 418.726 155.922 436.678 153.135C443.636 152.021 450.734 151.463 457.692 151.463C459.779 151.463 461.727 151.463 463.815 151.603C468.964 151.881 474.113 152.16 479.262 152.717C481.906 152.996 484.411 153.414 487.055 153.832C486.915 148.398 486.359 142.824 485.246 136.554C484.271 130.841 482.88 124.989 480.932 118.718C477.731 108.128 472.999 97.1205 466.737 84.9978C464.232 80.1209 461.31 74.9653 458.248 69.6704C455.604 65.3508 452.821 61.0312 450.038 56.9904C444.054 48.3512 437.792 41.3842 431.112 35.5319C427.633 32.4664 424.015 29.6796 419.979 27.1715C416.222 24.8027 411.908 22.7126 407.315 20.7618C398.409 17.1389 387.972 15.3275 376.421 15.0488C375.726 15.0488 375.03 15.0488 374.334 15.0488C369.881 15.3275 364.871 15.6062 359.444 16.1636Z" fill="#5DD2CE"/>
<path d="M455.326 145.611C453.934 145.611 452.404 145.611 450.734 145.75C448.646 145.89 446.559 146.029 444.471 146.168C438.07 146.865 431.808 147.98 425.545 149.652C422.206 150.488 419.144 151.463 416.222 152.439C413.16 153.414 410.098 154.529 407.037 155.783C399.383 158.709 392.008 162.193 384.91 166.233C381.292 168.324 377.952 170.274 374.891 172.225C371.829 174.176 368.907 176.266 366.124 178.217C363.619 180.168 361.392 181.84 359.305 183.651C356.8 185.741 354.573 187.971 352.486 190.2C350.259 192.429 348.172 194.798 346.223 197.167C344.136 199.536 342.188 201.905 340.24 204.413C338.291 206.782 336.482 209.15 334.673 211.798L331.751 215.699L330.498 217.371C328.967 219.462 327.437 221.552 325.767 223.642C323.262 226.986 320.2 231.027 317 234.928C313.799 238.691 310.737 242.313 307.537 245.658C304.058 249.28 300.718 252.485 297.378 255.551C293.76 258.895 290.141 261.821 286.523 264.469C282.627 267.395 279.009 269.903 275.39 272.132C271.216 274.64 267.041 276.87 263.005 278.821C258.691 280.771 254.377 282.583 250.341 283.837C247.836 284.673 245.471 285.37 243.244 285.927C240.878 286.484 238.513 287.042 236.286 287.46C230.998 288.435 226.127 289.132 221.535 289.55C218.195 289.829 214.855 289.968 211.654 289.968C209.706 289.968 208.175 289.968 206.784 289.829C201.913 289.55 197.321 289.132 193.007 288.296C188.136 287.46 183.544 286.345 178.952 284.952C174.359 283.558 169.906 281.886 165.592 279.935C162.948 278.821 160.304 277.427 157.521 276.173C161 278.681 164.896 281.329 169.071 283.976C187.023 295.124 206.227 303.763 226.127 309.476C244.357 314.771 263.283 317.418 282.209 317.418C283.879 317.418 285.41 317.418 287.08 317.418C307.815 316.861 328.689 312.959 348.868 305.713C358.609 302.23 368.489 297.771 378.509 292.337C386.859 287.739 395.208 282.862 403.28 277.567C411.768 271.993 420.118 266.001 427.911 259.592C436.261 252.903 443.915 245.797 450.734 238.412C457.97 230.748 464.232 222.806 469.52 214.585C474.948 206.085 479.262 197.306 482.323 188.249C483.993 183.512 485.246 178.356 486.081 172.922C487.055 167.209 487.472 161.217 487.333 154.947C487.333 154.111 487.333 153.275 487.194 152.439C486.776 152.299 486.498 152.16 486.22 152.021C483.297 150.767 480.514 149.791 477.87 149.095C476.339 148.677 474.809 148.258 473.556 147.98C472.025 147.701 470.634 147.422 469.103 147.144C464.928 146.586 460.892 146.168 456.996 146.168C456.439 145.611 455.883 145.611 455.326 145.611Z" fill="#EBFAF8"/>
<path d="M453.517 145.75C452.264 154.39 450.316 163.029 447.672 171.25C441.132 191.872 431.112 211.38 418.866 229.216C407.454 245.658 393.956 260.707 378.787 273.805C363.619 286.903 346.78 298.189 328.411 306.271C319.365 310.312 310.042 313.517 300.439 315.746C299.605 315.885 298.77 316.164 297.935 316.303C315.191 314.91 332.168 311.148 348.868 305.156C354.434 303.205 360.14 300.837 365.845 298.189C377.813 291.78 389.085 284.116 399.661 275.337L399.383 275.477C402.584 272.829 405.645 270.042 408.707 267.256C421.371 255.412 432.782 242.174 442.662 227.961C442.662 228.101 442.523 228.101 442.523 228.24C444.332 225.732 446.002 223.085 447.672 220.576C456.718 206.503 464.371 191.594 470.216 175.848C471.747 171.668 472.999 167.488 473.974 163.168C474.948 158.988 475.644 154.668 476.061 150.349C476.061 149.652 476.2 149.095 476.2 148.398C475.226 148.119 474.252 147.98 473.417 147.701C471.886 147.423 470.495 147.144 468.964 146.865C464.928 146.308 460.892 145.89 456.718 145.89C456.161 145.89 455.604 145.89 455.048 145.89C454.769 145.75 454.073 145.75 453.517 145.75Z" fill="#A8EEE4"/>
<path d="M477.175 158.709C476.34 163.446 475.087 168.184 473.556 172.782C472.165 176.823 470.634 180.864 468.964 184.905C467.433 188.667 465.624 192.429 463.815 196.192C456.3 211.519 447.255 226.15 436.679 239.666C426.102 253.321 413.995 266.001 400.636 277.148C397.574 279.657 394.374 282.165 391.173 284.533C395.209 282.165 399.244 279.657 403.141 277.009C411.63 271.435 419.979 265.444 427.772 259.034C436.122 252.346 443.776 245.239 450.595 237.854C457.692 230.191 464.093 222.248 469.382 214.166C474.809 205.667 479.123 196.888 482.184 187.831C483.854 183.093 485.107 177.938 485.942 172.504C486.916 166.791 487.333 160.799 487.194 154.529C487.194 153.693 487.194 152.857 487.055 152.021C486.777 151.881 486.359 151.742 486.081 151.602H486.22C483.576 150.488 480.932 149.512 478.288 148.676C478.149 152.16 477.731 155.365 477.175 158.709Z" fill="#A8EEE4"/>
<path d="M450.734 145.75C448.646 145.89 446.559 146.029 444.472 146.168C438.07 146.865 431.808 147.98 425.546 149.652C422.345 150.488 419.283 151.324 416.222 152.439C415.387 152.717 414.552 152.996 413.717 153.275C413.16 157.176 412.465 161.078 411.63 164.979C409.681 173.758 407.176 182.536 403.976 191.036C399.94 201.626 394.93 211.937 388.946 221.691C383.936 230.051 378.231 237.994 371.969 245.518C359.583 260.428 345.11 273.526 328.968 284.116C312.964 294.566 295.291 302.509 276.782 307.107C267.458 309.476 257.856 310.869 248.393 311.426C244.358 311.705 240.322 311.705 236.426 311.566C250.203 314.771 264.258 316.582 278.452 316.861C282.766 316.582 287.08 316.164 291.394 315.467C304.475 313.238 317.278 309.197 329.385 303.623C329.385 303.623 329.385 303.623 329.524 303.623C329.524 303.623 329.524 303.623 329.385 303.623C345.667 296.238 360.697 286.345 374.474 274.919H374.334C375.169 274.222 375.865 273.526 376.7 272.829C391.869 259.731 405.367 244.822 416.918 228.379C416.918 228.379 416.918 228.379 416.918 228.519C427.633 213.191 436.539 196.749 442.941 179.192C446.977 168.324 449.899 157.037 451.569 145.611C451.151 145.75 451.012 145.75 450.734 145.75ZM374.195 275.058C374.056 275.058 374.195 275.058 374.195 275.058C374.056 275.058 374.195 275.058 374.195 275.058ZM329.524 303.484C329.385 303.623 329.524 303.623 329.524 303.484C329.385 303.623 329.524 303.623 329.524 303.484Z" fill="#A8EEE4"/>
<path d="M407.037 155.644C399.522 158.57 392.008 162.053 384.91 166.094C383.101 167.07 381.153 168.184 379.344 169.299C379.344 169.438 379.344 169.438 379.344 169.578C376.561 180.307 372.525 190.618 367.654 200.511C362.645 210.544 356.8 220.158 350.259 229.355C343.719 238.412 336.622 246.912 328.689 254.715C324.793 258.477 320.896 262.239 316.721 265.723C312.547 269.206 308.233 272.411 303.779 275.477C295.012 281.329 285.549 286.206 275.669 289.968C265.928 293.73 255.769 296.378 245.471 297.91C235.034 299.443 224.458 299.861 214.02 299.025C208.732 298.607 203.444 297.91 198.156 296.935C195.651 296.517 193.285 295.96 190.781 295.402C202.192 300.976 214.16 305.435 226.267 309.058C238.791 310.172 251.455 309.615 263.979 307.664C278.035 305.296 291.812 301.115 304.893 295.124C304.754 295.124 304.754 295.263 304.614 295.263C319.226 288.575 333.003 279.796 345.389 269.485C345.389 269.485 345.389 269.485 345.25 269.624C358.609 258.477 370.299 245.518 380.318 231.306C380.318 231.306 380.318 231.306 380.318 231.166C380.318 231.166 380.318 231.027 380.457 231.027C384.771 224.757 388.807 218.208 392.425 211.519C396.322 204.134 399.801 196.47 402.723 188.667L402.862 188.389C402.862 188.389 402.862 188.389 402.862 188.528C405.506 181.422 407.594 174.176 409.264 166.93C410.238 162.75 411.073 158.43 411.629 154.111C409.96 154.529 408.429 155.086 407.037 155.644Z" fill="#A8EEE4"/>
<path d="M374.752 172.085C371.829 174.036 368.907 175.987 365.984 178.077C365.984 178.077 365.984 178.077 366.124 178.077C363.758 179.889 361.531 181.7 359.305 183.511C356.939 185.602 354.573 187.692 352.486 190.06C350.259 192.29 348.172 194.659 346.223 197.027C344.136 199.396 342.188 201.765 340.24 204.273C338.291 206.642 336.482 209.15 334.673 211.658C331.751 215.56 328.828 219.461 325.906 223.363C322.984 227.125 320.2 230.887 317.139 234.649C314.077 238.272 311.016 241.895 307.676 245.379C304.475 248.723 301.135 252.067 297.517 255.272C294.038 258.477 290.42 261.403 286.662 264.19C283.044 266.837 279.287 269.485 275.39 271.853C271.355 274.222 267.319 276.591 263.005 278.542C258.969 280.493 254.655 282.165 250.341 283.558C247.976 284.394 245.61 285.091 243.244 285.648C240.878 286.205 238.652 286.763 236.286 287.181C231.415 288.156 226.545 288.853 221.535 289.271C216.664 289.689 211.794 289.828 206.784 289.55C202.192 289.271 197.599 288.853 193.007 288.017C188.275 287.181 183.544 286.066 178.952 284.673C174.359 283.279 169.906 281.607 165.592 279.656C162.809 278.402 160.165 277.148 157.521 275.894C161.278 278.542 165.175 281.189 169.071 283.558C173.385 286.205 177.699 288.714 182.152 291.082C182.291 291.082 182.431 291.082 182.57 291.082C191.754 293.869 201.217 295.681 210.82 296.656C210.68 296.656 210.68 296.656 210.541 296.656C222.648 297.771 234.894 297.492 246.862 295.541C259.108 293.451 271.076 289.828 282.488 284.673C294.316 279.238 305.449 272.271 315.469 263.911C315.469 263.911 315.469 263.911 315.33 264.05C322.009 258.477 328.272 252.346 333.977 245.936C339.822 239.387 345.249 232.559 350.398 225.453C359.583 212.355 367.237 198.282 372.803 183.233C374.334 179.192 375.586 175.151 376.7 170.971C376.004 171.249 375.447 171.667 374.752 172.085ZM282.766 284.533C282.766 284.533 282.627 284.533 282.627 284.673C282.627 284.533 282.766 284.533 282.766 284.533Z" fill="#A8EEE4"/>
<path d="M161 278.124C160.722 277.845 160.304 277.706 160.026 277.427C162.948 279.517 166.01 281.468 169.211 283.558C173.525 286.206 177.978 288.853 182.292 291.083H182.431C182.57 291.083 182.57 291.083 182.709 291.083C189.806 293.173 197.182 294.845 204.697 295.96C206.784 296.238 208.872 296.517 210.959 296.656H210.82H210.959C215.412 297.074 220.004 297.353 224.597 297.353C232.251 297.353 239.765 296.796 247.28 295.542C257.3 293.869 267.041 291.222 276.504 287.46C266.763 287.042 257.021 286.066 247.419 284.534C246.445 284.812 245.471 285.091 244.497 285.37C244.218 285.509 243.801 285.509 243.523 285.648C241.157 286.206 238.791 286.763 236.565 287.181C231.276 288.157 226.406 288.853 221.814 289.271C218.334 289.55 214.995 289.689 211.933 289.689C210.124 289.689 208.593 289.689 207.062 289.55C202.192 289.271 197.599 288.853 193.285 288.017C190.363 287.46 187.58 286.902 184.797 286.206C182.848 285.788 181.039 285.23 179.23 284.673C178.256 284.394 177.282 284.116 176.308 283.698C173.664 282.862 171.159 281.886 168.654 280.771C167.68 280.353 166.845 280.075 165.871 279.657C164.479 279.099 163.087 278.403 161.696 277.706C160.443 277.149 159.191 276.452 157.938 275.895C158.913 276.591 160.026 277.427 161 278.124Z" fill="#91EEE2"/>
<path d="M285.967 287.46C284.436 287.46 282.905 287.46 281.374 287.46C279.565 288.296 277.617 289.132 275.669 289.829C265.927 293.591 255.769 296.238 245.471 297.771C238.513 298.746 231.555 299.304 224.596 299.304C221.117 299.304 217.638 299.164 214.02 298.886C208.732 298.468 203.305 297.771 198.156 296.796L197.321 296.656C195.512 296.378 193.703 295.96 192.033 295.542C191.754 295.402 191.337 295.402 191.059 295.263C200.382 299.861 210.263 303.763 220.143 306.967C222.231 307.664 224.318 308.222 226.406 308.918C230.72 309.336 235.173 309.476 239.626 309.476C247.836 309.476 256.047 308.779 264.118 307.525C278.034 305.295 291.811 300.976 305.032 294.984C311.711 291.919 318.391 288.296 324.932 284.255C311.851 286.484 298.909 287.599 285.967 287.46Z" fill="#91EEE2"/>
<path d="M363.201 274.64C357.496 276.452 351.79 278.263 346.085 279.657C340.797 281.05 335.369 282.304 329.942 283.279L328.968 283.837C312.408 294.705 294.873 302.369 276.782 306.828C267.319 309.197 257.717 310.59 248.393 311.148C245.471 311.287 242.549 311.426 239.765 311.426C238.791 311.426 237.817 311.426 236.843 311.426C236.704 311.426 236.565 311.426 236.426 311.426C250.063 314.631 264.258 316.443 278.313 316.721C282.488 316.443 286.941 316.025 291.255 315.328C303.919 313.238 316.722 309.197 329.246 303.484C344.693 296.378 359.862 286.763 374.195 274.78C374.891 274.222 375.726 273.526 376.561 272.829C378.788 270.878 381.014 268.927 383.241 266.837C376.7 269.763 370.02 272.411 363.201 274.64Z" fill="#91EEE2"/>
<path d="M423.737 244.404C414.552 250.813 404.95 256.665 394.93 261.682C392.982 262.657 391.034 263.633 388.947 264.469C388.947 264.469 388.947 264.469 389.086 264.469C385.746 267.813 382.267 270.878 378.927 273.804C362.923 287.599 345.946 298.607 328.551 306.271C319.088 310.451 309.764 313.656 300.579 315.746L300.022 315.885C299.466 316.025 298.77 316.164 298.213 316.303C298.909 316.303 299.605 316.164 300.44 316.164C303.78 315.885 306.981 315.467 310.181 315.049H310.46C323.402 313.238 336.344 309.894 349.146 305.295C354.713 303.345 360.418 300.976 366.124 298.328C375.17 293.591 384.215 287.738 392.982 281.05C395.209 279.239 397.575 277.427 399.801 275.616L399.662 275.755C402.584 273.386 405.785 270.6 408.986 267.673C420.536 256.944 431.252 244.822 440.715 231.584C435.148 235.904 429.442 240.223 423.737 244.404Z" fill="#91EEE2"/>
<path d="M470.773 198.56C464.093 207.339 456.857 215.699 448.924 223.363C448.368 223.92 447.811 224.478 447.254 224.896C447.254 224.896 447.254 224.896 447.254 225.035C447.254 225.035 447.254 225.035 447.394 224.896C444.054 229.912 440.575 234.789 436.956 239.387C426.102 253.46 413.995 266.001 400.914 276.87C398.409 278.96 395.765 281.05 393.26 282.861C392.703 283.279 392.146 283.697 391.59 284.115C395.347 281.886 399.244 279.517 403.419 276.73C411.907 271.157 420.257 265.165 428.05 258.755C436.4 252.067 444.054 244.961 450.873 237.576C458.109 229.912 464.371 221.969 469.659 213.888C475.087 205.388 479.401 196.609 482.462 187.552L482.74 186.856L483.019 186.02C483.993 183.093 484.828 179.889 485.524 176.544C480.931 184.347 476.061 191.733 470.773 198.56Z" fill="#91EEE2"/>
<path d="M5.41771 125.267C4.86106 126.939 4.86106 128.89 5.27854 131.538C5.69603 134.046 6.531 136.554 7.36596 138.644C7.64429 139.341 7.78345 139.898 8.06177 140.595L8.20093 140.873L8.61842 142.128C8.75758 142.546 8.89674 142.964 9.0359 143.521L9.17506 143.939C9.45338 144.636 9.73171 145.332 9.87087 146.029C10.9842 149.095 12.3758 152.16 14.0457 154.947C15.5765 157.594 17.2464 160.242 19.1947 162.611C21.0038 164.84 23.0912 166.93 25.3178 168.881C29.3534 172.364 34.2241 175.291 39.7905 177.659C44.8004 179.749 50.3668 181.282 56.7682 182.536C62.3347 183.512 68.1794 184.069 75.2767 184.487C75.555 184.487 75.9725 184.487 76.2508 184.487H76.39C83.0697 195.634 89.332 205.249 95.5942 214.167C102.831 224.199 110.624 233.674 118.556 242.174C126.071 250.117 134.281 257.78 143.048 265.026C147.641 268.788 152.511 272.55 157.521 276.034C160.304 277.427 163.087 278.681 165.592 279.796C169.906 281.608 174.36 283.28 178.952 284.812C183.405 286.206 188.136 287.32 193.007 288.157C197.321 288.853 202.053 289.411 206.784 289.689C208.315 289.829 209.846 289.829 211.655 289.829C214.716 289.829 218.056 289.689 221.535 289.411C226.128 288.993 230.859 288.435 236.286 287.32C238.513 286.902 240.879 286.345 243.244 285.788C244.497 285.509 245.749 285.091 247.141 284.673C246.584 284.534 246.028 284.534 245.332 284.394C231.833 282.026 218.474 278.681 205.392 274.222C192.45 269.764 179.926 264.469 167.819 258.059C161.696 254.854 155.573 251.371 149.728 247.748C143.744 243.986 138.038 240.223 132.333 236.043C126.906 232.002 121.478 227.683 116.468 223.084C111.459 218.486 106.588 213.609 101.996 208.454C97.4033 203.298 92.9502 197.864 88.7753 192.43C87.5229 190.897 86.4096 189.225 85.2963 187.692C84.4613 186.577 83.6264 185.323 82.7914 184.208C81.6781 182.676 80.4256 181.143 78.8949 179.889C78.4774 179.61 78.0599 179.192 77.5033 178.913C77.0858 178.635 76.5291 178.356 76.1116 178.217C74.3025 177.52 72.3543 176.963 70.406 176.684C68.3186 176.266 66.2312 175.848 64.1438 175.43C60.1081 174.455 56.0724 173.479 52.1759 172.086C48.1402 170.692 44.1045 169.16 40.208 167.348C36.4507 165.537 32.8325 163.586 29.3534 161.217C25.8744 158.848 22.6737 156.201 19.7513 153.275C17.1073 150.488 14.6024 147.422 12.5149 144.078C10.5667 139.898 8.89674 136.136 7.78345 132.095C7.2268 130.005 6.80932 127.915 6.531 125.825C6.39184 125.128 6.39184 124.431 6.25267 123.735C5.97435 124.153 5.69603 124.571 5.41771 125.267Z" fill="#4ABBB6"/>
<path d="M78.8951 179.471C78.7559 179.331 78.8951 179.331 78.8951 179.471C78.7559 179.331 78.8951 179.331 78.8951 179.471Z" fill="#4ABBB6"/>
<path d="M251.455 207.199C250.342 207.199 249.089 207.339 247.976 207.478C246.028 207.757 244.218 208.314 242.548 209.011C241.714 209.429 241.018 209.847 240.044 210.404C239.209 210.962 238.513 211.658 237.817 212.355C237.539 212.634 237.539 213.052 237.539 213.33C236.704 214.584 235.869 215.699 235.034 216.535C232.529 219.322 229.746 221.97 227.102 224.478L225.432 226.15C221.813 229.633 218.334 232.977 215.273 236.74C213.046 239.387 210.402 243.149 209.706 247.19C209.428 248.862 209.567 250.674 210.263 252.206C210.959 253.739 212.211 255.272 214.02 256.526C214.995 257.223 216.247 257.919 217.221 258.337C218.334 258.895 219.587 259.452 221.118 259.87C224.458 260.985 228.076 261.682 231.833 261.96C233.225 262.1 234.616 262.1 236.008 262.1C238.234 262.1 240.6 261.96 242.966 261.682C246.584 261.264 250.202 260.428 253.821 259.313C261.057 257.083 267.737 253.6 273.442 249.141C276.504 246.772 279.148 244.125 280.957 241.199C283.044 237.994 284.158 234.65 284.297 231.305C284.436 227.822 283.323 224.338 281.096 221.273C279.844 219.461 278.174 217.789 275.808 215.978C273.721 214.445 271.355 212.912 268.432 211.519C265.788 210.265 263.005 209.15 260.083 208.453C257.3 207.617 254.377 207.199 251.455 207.199Z" fill="#5DD2CE"/>
<path d="M278.174 243.846C275.251 245.657 272.051 247.19 268.711 248.444C267.041 249.141 265.232 249.698 263.562 250.256C261.474 250.813 259.526 251.51 257.439 251.928C253.403 252.903 249.228 253.739 245.053 254.297C240.879 254.715 236.704 254.854 232.529 254.436C231.416 254.297 230.302 254.157 229.189 254.018C228.215 253.879 227.38 253.739 226.406 253.461C225.292 253.182 224.179 252.903 223.205 252.485C221.953 252.067 220.7 251.51 219.587 250.952C218.474 250.395 217.221 249.698 216.247 248.862C215.273 248.166 214.299 247.33 213.464 246.354C213.046 245.936 212.629 245.379 212.35 244.821C212.072 244.403 211.794 243.846 211.655 243.289C211.516 243.01 211.516 242.731 211.376 242.453C210.681 243.846 210.124 245.379 209.846 247.051C209.567 248.723 209.706 250.395 210.402 252.067C211.098 253.6 212.35 255.133 214.16 256.387C215.134 257.083 216.386 257.78 217.36 258.198C218.474 258.755 219.726 259.313 221.257 259.731C224.597 260.846 228.215 261.542 231.972 261.821C233.364 261.96 234.755 261.96 236.147 261.96C238.374 261.96 240.739 261.821 243.105 261.542C246.723 261.124 250.342 260.288 253.96 259.173C261.196 256.944 267.876 253.461 273.581 249.002C276.365 246.912 278.73 244.403 280.54 241.895C279.844 242.731 279.009 243.289 278.174 243.846Z" fill="#4ABBB6"/>
<path d="M236.008 214.724C235.034 215.978 233.92 217.232 232.807 218.347C231.694 219.601 230.441 220.715 229.189 221.83C226.684 224.199 224.04 226.428 221.535 228.658C219.03 231.027 216.525 233.395 214.438 236.043C213.464 237.297 212.49 238.69 211.655 240.084C211.237 240.78 210.82 241.477 210.541 242.174C210.124 243.01 209.706 243.846 209.428 244.682C209.15 245.518 209.011 246.215 208.871 247.051C208.732 247.887 208.871 248.723 208.871 249.42C209.011 250.116 209.15 250.813 209.428 251.51C209.706 252.206 209.985 252.764 210.402 253.46C212.072 256.108 214.716 257.919 217.36 259.313C220.7 260.985 224.179 261.821 227.797 262.518C229.885 262.936 232.111 263.075 234.338 263.075C236.565 263.075 238.652 262.936 240.879 262.796C242.966 262.518 245.053 262.239 247.002 261.821C249.089 261.403 251.176 260.845 253.125 260.288C256.604 259.173 260.083 257.919 263.423 256.247C266.763 254.714 269.824 252.764 272.746 250.534C275.808 248.305 278.591 245.797 281.096 242.871C281.235 242.731 281.235 242.592 281.096 242.313C280.957 242.174 280.679 242.174 280.539 242.313C278.313 244.821 275.947 247.051 273.164 249.002C268.85 251.928 264.118 254.296 259.248 256.108C259.248 256.108 259.248 256.108 259.387 256.108H259.248H259.109C259.109 256.108 259.109 256.108 259.248 256.108C256.604 257.083 253.96 257.919 251.176 258.616C247.837 259.452 244.636 260.149 241.157 260.567C239.209 260.706 237.121 260.845 235.173 260.706C233.225 260.706 231.137 260.427 229.189 260.149H229.328H229.189H229.05C229.05 260.149 229.05 260.149 229.189 260.149C227.241 259.87 225.292 259.313 223.344 258.755C222.092 258.337 220.7 257.919 219.448 257.362C217.778 256.665 216.247 255.69 214.855 254.575C214.02 253.878 213.325 253.182 212.629 252.346C212.211 251.788 211.933 251.092 211.655 250.395C211.515 249.838 211.376 249.28 211.237 248.583C211.237 247.887 211.237 247.329 211.237 246.633C211.376 245.518 211.794 244.543 212.211 243.428C213.325 241.059 214.716 238.83 216.386 236.879C219.587 233.117 223.205 229.912 226.823 226.568C228.632 224.896 230.441 223.223 232.111 221.412C233.781 219.601 235.451 217.789 236.843 215.838C237.121 215.56 236.982 215.142 236.704 214.863C236.565 214.724 236.286 214.584 236.147 214.584C236.286 214.445 236.008 214.584 236.008 214.724ZM216.804 236.879L216.664 237.018L216.804 236.879ZM212.629 243.428C212.49 243.428 212.49 243.567 212.629 243.428C212.49 243.428 212.49 243.567 212.629 243.428ZM219.587 257.223C219.726 257.223 219.865 257.362 219.865 257.362C219.865 257.362 219.726 257.362 219.587 257.223Z" fill="#119C97"/>
<path d="M276.087 78.3094C279.844 82.7683 289.029 81.3748 296.543 74.9652C304.058 68.6948 307.12 59.9164 303.362 55.3181C299.605 50.8592 290.42 52.2526 282.906 58.6623C275.391 65.072 272.329 73.8505 276.087 78.3094Z" fill="#A8EEE4"/>
<path d="M248.393 94.8909C250.62 97.1203 255.49 95.8663 259.108 92.1041C262.866 88.3419 263.979 83.6043 261.753 81.3748C259.526 79.1454 254.655 80.3995 251.037 84.1617C247.419 87.7845 246.166 92.6614 248.393 94.8909Z" fill="#A8EEE4"/>
<path d="M342.188 42.7777C342.745 45.5645 347.755 46.9579 353.46 45.9826C359.166 45.0072 363.48 41.9417 363.062 39.1549C362.506 36.3681 357.496 34.9747 351.79 35.95C346.085 36.9254 341.771 39.9909 342.188 42.7777Z" fill="#A8EEE4"/>
<path d="M315.191 46.2609C316.443 48.6297 319.922 49.0477 322.984 47.3757C326.045 45.7036 327.576 42.4987 326.324 40.1299C325.071 37.7612 321.592 37.3431 318.53 39.0152C315.469 40.6873 313.938 43.8921 315.191 46.2609Z" fill="#A8EEE4"/>
<path d="M219.726 131.398C221.535 133.21 225.154 132.652 227.519 130.144C230.024 127.636 230.442 124.152 228.633 122.341C226.823 120.53 223.205 121.087 220.84 123.595C218.335 125.964 217.778 129.587 219.726 131.398Z" fill="#A8EEE4"/>
<path d="M236.565 108.825C237.4 109.661 239.069 109.382 240.183 108.267C241.296 107.153 241.574 105.481 240.739 104.645C239.904 103.809 238.235 104.087 237.121 105.202C236.008 106.317 235.73 107.989 236.565 108.825Z" fill="#A8EEE4"/>
<path d="M273.025 98.5137C273.86 99.3497 275.53 99.0711 276.643 97.9563C277.756 96.8416 278.035 95.1695 277.2 94.3335C276.365 93.4974 274.695 93.7761 273.581 94.8908C272.329 96.1449 272.19 97.6776 273.025 98.5137Z" fill="#A8EEE4"/>
<path d="M317 60.6131C317.417 61.5885 318.809 61.8672 320.061 61.1705C321.314 60.6131 322.01 59.359 321.592 58.3836C321.175 57.4083 319.783 57.1296 318.531 57.8263C317.278 58.523 316.582 59.6377 317 60.6131Z" fill="#A8EEE4"/>
<path d="M336.205 165.397C339.823 165.397 342.745 160.381 342.884 153.971C343.023 147.562 340.101 142.406 336.483 142.406C332.865 142.406 329.942 147.422 329.803 153.832C329.664 160.102 332.586 165.258 336.205 165.397Z" fill="#197967"/>
<path d="M465.902 127.218C468.964 125.407 468.964 119.415 465.624 113.981C462.423 108.546 457.274 105.62 454.074 107.432C451.012 109.243 451.012 115.235 454.352 120.669C457.692 126.103 462.841 129.029 465.902 127.218Z" fill="#197967"/>
<path d="M339.683 151.184C338.57 151.463 336.9 150.209 336.204 148.398C335.369 146.586 335.647 144.775 336.9 144.496C338.013 144.217 339.683 145.471 340.379 147.283C341.074 149.094 340.796 150.906 339.683 151.184Z" fill="#FEFEFE"/>
<path d="M339.961 154.25C339.266 154.25 338.57 153.832 338.57 153.135C338.57 152.439 338.987 151.881 339.683 151.881C340.379 151.881 341.075 152.299 341.075 152.996C341.214 153.553 340.657 154.111 339.961 154.25Z" fill="#FEFEFE"/>
<path d="M462.145 113.981C461.31 114.817 459.223 114.399 457.692 113.005C456.161 111.612 455.605 109.94 456.44 109.243C457.275 108.407 459.362 108.825 460.893 110.218C462.424 111.473 462.98 113.145 462.145 113.981Z" fill="#FEFEFE"/>
<path d="M463.676 116.489C463.119 116.907 462.284 116.767 462.006 116.21C461.588 115.653 461.867 114.956 462.423 114.538C462.98 114.12 463.815 114.259 464.093 114.817C464.511 115.374 464.232 116.071 463.676 116.489Z" fill="#FEFEFE"/>
<path d="M401.888 120.53C401.332 120.669 400.914 121.226 401.053 121.784C401.332 123.038 401.471 124.292 401.61 125.546V125.407C401.61 125.546 401.61 125.546 401.61 125.685C401.749 126.939 401.61 128.193 401.471 129.308C401.332 130.144 401.053 130.98 400.636 131.816C400.357 132.513 399.94 133.07 399.522 133.628C399.105 134.185 398.548 134.603 397.992 135.021C397.435 135.439 396.739 135.857 396.043 136.136C395.348 136.414 394.513 136.554 393.678 136.693C392.843 136.693 392.008 136.693 391.173 136.554C390.338 136.414 389.503 136.136 388.668 135.718C387.833 135.3 387.137 134.742 386.302 134.185C385.467 133.488 384.771 132.792 384.215 131.956C383.519 130.98 382.962 130.005 382.545 128.89C382.266 128.333 381.571 128.193 381.153 128.472C380.875 128.611 380.736 128.751 380.597 129.029C380.457 129.308 380.597 129.587 380.597 129.865C381.153 131.12 381.849 132.374 382.684 133.488C383.38 134.464 384.354 135.439 385.328 136.136C387.137 137.529 389.225 138.365 391.451 138.644C393.539 138.923 395.626 138.505 397.574 137.529C399.522 136.554 401.053 135.021 402.027 133.07C402.862 131.538 403.28 129.865 403.419 128.193C403.697 125.825 403.28 123.595 402.723 121.226C402.584 120.808 402.167 120.39 401.749 120.39C402.027 120.53 402.027 120.53 401.888 120.53ZM384.215 131.538C384.215 131.677 384.354 131.677 384.215 131.538C384.215 131.677 384.354 131.677 384.215 131.538ZM388.807 135.578C388.807 135.578 388.946 135.578 388.946 135.718C388.946 135.718 388.946 135.578 388.807 135.578Z" fill="#197967"/>
<path d="M419.7 112.448C419.422 112.448 419.144 112.727 419.005 112.866C418.865 113.005 418.726 113.423 418.865 113.702C419.144 114.538 419.422 115.235 419.561 116.071C419.7 116.767 419.84 117.464 419.84 118.161C419.84 119.136 419.84 120.251 419.7 121.226C419.561 122.062 419.283 122.759 419.005 123.456C418.726 124.152 418.309 124.71 417.752 125.407C417.335 125.964 416.778 126.382 416.221 126.8C415.665 127.218 415.108 127.497 414.412 127.775C413.856 127.915 413.16 128.054 412.464 128.193C411.768 128.193 411.212 128.193 410.516 128.054C409.82 127.915 409.263 127.636 408.567 127.357C407.872 126.939 407.176 126.521 406.619 126.103C405.923 125.407 405.228 124.71 404.671 123.874C404.114 123.038 403.558 122.202 403.14 121.226C402.862 120.669 402.166 120.53 401.749 120.808C401.192 121.087 401.053 121.644 401.331 122.202C402.444 124.71 404.114 127.079 406.48 128.611C407.454 129.169 408.428 129.726 409.542 130.005C410.098 130.144 410.655 130.283 411.212 130.283C411.768 130.283 412.325 130.283 412.881 130.283C414.969 130.144 416.917 129.029 418.448 127.636C419.283 126.939 419.84 125.964 420.396 124.989C420.674 124.431 420.953 123.874 421.092 123.456C421.37 122.898 421.509 122.202 421.509 121.505C421.788 120.251 421.649 118.997 421.649 117.882C421.509 116.349 421.092 114.956 420.535 113.423C420.396 113.145 420.396 112.866 420.118 112.727C419.979 112.587 419.7 112.587 419.561 112.587C419.84 112.448 419.84 112.448 419.7 112.448ZM406.898 126.243L407.037 126.382C407.037 126.243 406.898 126.243 406.898 126.243ZM408.846 127.497C408.846 127.497 408.985 127.497 408.846 127.497C408.846 127.497 408.985 127.497 408.846 127.497ZM414.83 127.636H414.691C414.691 127.775 414.83 127.636 414.83 127.636Z" fill="#197967"/>
<path d="M374.334 18.2536C372.943 18.2536 371.412 18.2536 369.881 18.3929C369.185 18.3929 368.629 18.3929 367.933 18.5323C363.619 18.811 359.027 19.3683 354.156 20.2044C349.146 21.1798 343.997 22.2945 338.709 23.9666C328.968 26.8927 318.948 30.7943 309.068 35.8105C304.336 38.1793 299.605 40.8268 295.43 43.3349C290.977 45.9824 286.524 49.0479 281.792 52.5314C278.313 55.1789 274.695 57.9657 271.216 61.0312C273.86 59.3591 276.365 57.687 278.731 56.2936C284.019 53.0888 289.585 50.302 295.291 47.6545C298.213 46.2611 301.275 45.007 304.197 43.8923C305.867 43.1956 307.537 42.6382 309.207 41.9415C310.738 41.3841 312.408 40.6874 313.938 40.1301C321.731 37.3433 327.994 35.2532 333.838 33.7204C341.353 31.6303 348.172 30.2369 354.713 29.4009C357.357 29.1222 359.722 28.8435 361.949 28.7042C364.176 28.5648 366.263 28.5648 368.35 28.5648C370.577 28.5648 372.664 28.7042 374.891 28.8435C380.875 29.2615 386.72 30.2369 392.286 31.7696C398.131 33.4417 403.697 35.5318 408.846 38.1793C414.134 40.9661 419.144 44.171 423.597 47.7938C425.685 49.4659 428.051 51.556 430.416 53.7855C432.782 56.0149 435.148 58.3837 437.235 60.7525C441.549 65.4901 445.724 70.6457 449.621 76.08C453.378 81.2356 456.857 86.6699 460.197 92.3828C462.145 95.5877 463.676 98.3745 465.068 101.022C466.737 104.087 468.129 107.153 469.521 110.079C472.304 116.21 474.67 122.48 476.479 128.611C476.896 129.865 477.175 131.259 477.592 132.513C477.175 129.447 476.618 126.243 475.783 122.62C474.53 117.464 472.861 112.309 470.773 106.596C467.155 97.1204 462.284 87.3666 456.022 76.7767C453.517 72.4571 450.595 67.9982 447.394 63.4C444.75 59.6378 441.967 55.8756 439.183 52.3921C433.2 44.8677 427.216 38.876 420.814 33.8598C417.613 31.3516 413.995 28.9828 410.238 26.8927C406.62 24.942 402.723 23.2699 398.409 21.8765C391.173 19.5077 383.101 18.2536 374.334 18.2536Z" fill="#4ABBB6"/>
<path d="M89.889 96.2845C89.4715 96.4239 89.1932 96.7026 88.9149 96.9812C88.6365 97.3993 88.6365 97.8173 88.7757 98.2353C89.1932 100.186 89.6107 101.998 89.889 103.809C90.3065 105.76 90.5848 107.71 90.8631 109.661C90.8631 109.522 90.8631 109.522 90.8631 109.383C91.4198 113.702 91.8373 117.882 91.8373 122.202C91.8373 124.292 91.6981 126.521 91.6981 128.612C91.5589 130.841 91.2806 133.07 91.0023 135.3V135.021C90.724 136.972 90.4456 138.783 90.0282 140.734C89.6107 142.685 89.1932 144.636 88.6365 146.587C87.5232 150.488 86.2708 154.39 84.74 158.152C84.3225 158.988 84.0442 159.963 83.6267 160.799C83.4876 160.939 83.6267 161.217 83.7659 161.357C83.9051 161.496 84.1834 161.357 84.3225 161.217C86.1316 157.316 87.8016 153.414 89.1932 149.373C90.5848 145.472 91.8373 141.431 92.6722 137.251C93.5072 133.21 94.203 129.03 94.6205 124.849C95.038 120.669 95.038 116.489 94.7596 112.309C94.6205 109.801 94.3422 107.292 93.9247 104.784C93.5072 102.276 92.9505 99.6287 92.2547 97.1206C91.9764 96.4239 91.4198 95.8665 90.724 95.8665C90.1673 96.1452 90.0282 96.1452 89.889 96.2845Z" fill="#4ABBB6"/>
<path d="M84.6004 106.735C84.0437 106.874 83.7654 107.432 83.9045 107.989C84.322 109.661 84.6004 111.333 84.8787 113.005C85.4353 117.882 85.2962 122.898 84.6004 127.775C84.322 129.447 84.0437 131.259 83.7654 132.931C83.7654 133.21 83.9045 133.488 84.1829 133.628C84.4612 133.767 84.7395 133.488 84.8787 133.21C85.7136 129.029 86.4094 124.849 86.6878 120.53C86.8269 118.3 86.9661 116.21 86.8269 113.981C86.8269 112.866 86.6878 111.891 86.5486 110.776C86.4094 109.661 86.2703 108.546 85.992 107.432C85.8528 107.014 85.4353 106.596 85.0178 106.596C84.7395 106.596 84.6004 106.735 84.6004 106.735ZM84.7395 112.727V112.866C84.7395 112.866 84.7395 112.866 84.7395 112.727Z" fill="#4ABBB6"/>
<path d="M16.4115 126.661C15.994 126.8 15.7157 127.079 15.4374 127.357C15.159 127.775 15.159 128.193 15.2982 128.611C15.4374 129.169 15.8548 129.587 16.4115 129.726C17.8031 130.144 19.0556 130.701 20.308 131.259C22.2563 132.095 24.2045 133.07 26.0136 134.046C27.9619 135.021 29.771 136.136 31.5801 137.25C33.3892 138.365 35.1983 139.48 37.0074 140.734C38.8165 141.988 40.6255 143.242 42.2955 144.636L42.1563 144.496C44.8004 146.447 47.3053 148.537 49.671 150.767C52.1759 152.996 54.6808 155.225 57.1857 157.455C57.3249 157.594 57.6032 157.594 57.7424 157.455C57.8815 157.316 57.8815 157.037 57.7424 156.898C54.82 154.111 51.8976 151.463 48.9752 148.816C46.0528 146.168 42.9913 143.521 39.9297 141.013C36.8682 138.505 33.6675 136.136 30.4668 133.906C27.1269 131.677 23.6479 129.726 20.1688 128.054C19.3339 127.636 18.4989 127.218 17.5248 126.8C17.5248 126.8 17.3856 126.8 17.2465 126.661C17.1073 126.661 16.9681 126.661 16.829 126.661C16.6898 126.661 16.5506 126.661 16.4115 126.661Z" fill="#4ABBB6"/>
</g>
<g clip-path="url(#clip4_273_27)" filter="url(#filter1_d_273_27)">
<path d="M226.635 12.2557C225.832 12.3897 225.164 12.6576 224.495 12.7915C223.826 13.0594 223.157 13.3273 222.354 13.7291C221.151 14.3988 220.08 15.2025 219.01 16.274C218.074 17.2116 217.405 18.2831 216.736 19.6226C216.201 20.6941 215.666 22.0335 215.532 23.5069C215.265 24.8463 215.265 26.1857 215.398 27.6591C215.532 28.9985 215.933 30.4719 216.469 31.8113C217.004 33.1507 217.94 34.4901 218.876 35.6956C219.412 36.3653 219.947 36.9011 220.615 37.4368C221.284 38.1066 222.087 38.5084 222.756 38.9102C223.96 39.7139 225.297 40.2496 227.036 40.7854C228.374 41.1872 229.846 41.4551 231.585 41.589C232.655 41.723 233.591 41.723 234.795 41.723C236.935 41.723 239.076 41.5891 241.082 41.4551C242.554 41.3212 244.025 41.1872 245.497 41.1872C246.299 41.1872 246.968 41.0533 247.637 41.0533C247.904 41.0533 248.172 41.0533 248.44 41.0533C248.975 41.0533 249.643 41.0533 250.179 41.0533C251.115 41.0533 251.918 41.1872 252.854 41.3212C254.325 41.4551 255.663 41.5891 257.135 41.9909C259.409 42.5266 261.549 43.1964 263.555 44.1339C264.626 44.6697 265.696 45.2055 266.766 45.8752C267.702 46.411 268.639 47.0807 269.441 47.7504C270.378 48.4201 271.314 49.2237 272.117 50.1613L272.25 50.2953C272.25 50.2953 272.25 50.2953 272.25 50.1613C271.849 48.554 271.448 46.6788 270.913 44.8037C270.378 43.0624 269.843 41.3212 269.04 39.5799C267.569 36.0974 265.83 32.8828 263.555 29.8021C259.542 24.3105 253.924 19.4886 247.369 16.0061C244.025 14.2649 240.681 12.9254 237.203 12.2557C235.33 11.8539 233.591 11.72 231.718 11.72C229.979 11.72 228.24 11.8539 226.635 12.2557Z" fill="#01C0B9"/>
<path d="M231.852 16.2739C231.05 16.2739 230.247 16.4079 229.444 16.6758C229.444 16.6758 229.444 16.6758 229.311 16.6758C228.909 16.6758 228.508 16.9436 228.374 17.3455C228.107 17.7473 227.973 18.1491 228.107 18.5509C228.24 18.9528 228.374 19.3546 228.776 19.4885C228.909 19.4885 229.043 19.6225 229.177 19.6225C229.444 19.7564 229.578 19.7564 229.846 19.7564C230.648 19.8904 231.317 20.0243 232.12 20.0243C232.922 20.1582 233.859 20.1582 234.661 20.2922C236.4 20.5601 238.139 20.828 239.878 21.2298C241.885 21.7655 244.025 22.3013 246.032 23.105C247.102 23.5068 248.172 23.9086 249.242 24.4444C250.179 24.8462 251.115 25.382 252.051 25.9178C253.255 26.5875 254.326 27.2572 255.396 27.9269C256.466 28.5966 257.402 29.4002 258.339 30.3378C259.543 31.5433 260.613 32.7488 261.549 34.2222C261.683 34.49 261.817 34.7579 261.95 35.0258C262.084 35.1598 262.218 35.2937 262.352 35.1598C262.485 35.0258 262.619 34.8919 262.485 34.7579C261.817 33.5525 261.014 32.213 260.211 31.1415C259.409 29.936 258.339 28.7305 257.402 27.659C256.332 26.4535 255.128 25.382 254.058 24.4444C252.854 23.3729 251.516 22.5692 250.179 21.6316C247.37 19.8904 244.427 18.5509 241.35 17.6133C239.745 17.0776 238.139 16.8097 236.534 16.5418C235.464 16.4079 234.528 16.2739 233.457 16.2739C232.922 16.2739 232.387 16.2739 231.852 16.2739ZM251.918 25.9178C251.918 25.9178 252.051 25.9178 252.051 26.0517C252.051 26.0517 251.918 26.0517 251.918 25.9178Z" fill="#FEFEFE"/>
<path d="M223.023 17.7473C222.622 18.0152 222.488 18.4171 222.488 18.8189C222.354 19.6225 223.023 20.5601 223.96 20.5601C224.361 20.5601 224.762 20.4262 225.164 20.1583C225.565 19.8904 225.699 19.4886 225.699 19.0868C225.832 18.2831 225.164 17.3455 224.227 17.3455C223.826 17.3455 223.425 17.4795 223.023 17.7473Z" fill="#FEFEFE"/>
<path d="M282.283 17.2115C282.016 17.3454 281.615 17.4794 281.347 17.6133C281.079 17.7473 280.678 18.0151 280.411 18.1491C279.073 19.0867 278.137 20.2922 277.334 21.3637C276.665 22.3013 276.13 23.3728 275.595 24.4444C275.06 25.5159 274.792 26.8553 274.391 28.3287C273.856 31.0075 273.856 33.8203 274.257 37.0349C274.659 39.8477 275.327 42.7944 276.531 45.6072C277.602 48.286 278.939 50.697 280.678 52.8401C280.544 52.0364 280.544 51.2328 280.544 50.4291C280.678 48.6879 281.079 46.9466 281.615 45.3393C282.15 43.732 282.685 42.2587 283.354 40.7853C283.889 39.4459 284.424 38.1064 284.959 36.767C285.761 34.7579 286.564 32.7488 287.367 30.7396C287.768 29.5342 288.169 28.1947 288.437 26.7214C288.704 25.248 288.838 23.9086 288.838 22.7031C288.838 21.2297 288.437 20.0243 287.768 18.9527C287.099 17.8812 285.761 17.0775 284.424 16.9436C284.156 16.9436 284.022 16.9436 283.755 16.9436C283.22 17.0775 282.685 17.0775 282.283 17.2115Z" fill="#01C0B9"/>
<path d="M279.474 23.1051C279.34 23.1051 279.207 23.239 278.939 23.239C278.805 23.373 278.672 23.5069 278.672 23.6408C278.136 24.5784 277.735 25.65 277.334 26.8555C277.066 28.0609 276.799 29.2664 276.665 30.4719C276.531 31.6774 276.531 32.8828 276.531 34.0883C276.531 35.2938 276.665 36.4993 276.665 37.7048C276.665 37.8387 276.933 37.9726 277.066 37.9726C277.2 37.9726 277.334 37.8387 277.334 37.5708C277.334 37.3029 277.334 36.9011 277.334 36.6332C277.334 34.0883 277.601 31.4095 278.27 28.9985C278.672 27.793 279.207 26.5876 279.742 25.516C279.875 25.2481 280.143 24.9803 280.277 24.7124C280.411 24.4445 280.544 24.3106 280.544 23.9087C280.544 23.6408 280.411 23.373 280.143 23.239C280.009 23.1051 279.742 22.9711 279.474 22.9711C279.608 23.1051 279.474 23.1051 279.474 23.1051Z" fill="#FEFEFE"/>
<path d="M245.096 48.9559C243.357 49.0898 241.617 49.3577 240.012 49.7595C237.604 50.4292 235.063 51.6347 232.922 53.242C231.719 54.0457 230.782 55.1172 230.113 56.0548C229.311 57.1263 228.776 58.4658 228.642 59.6712C228.508 61.0107 228.909 62.3501 229.578 63.6895C229.98 64.3592 230.381 64.895 230.782 65.2968C231.05 65.5647 231.317 65.6986 231.585 65.9665C231.852 66.2344 232.254 66.3683 232.521 66.5023C232.922 66.7702 233.458 66.9041 234.126 67.038C234.394 67.038 234.795 67.172 235.063 67.172C235.33 67.172 235.732 67.172 235.999 67.172C236.668 67.172 237.203 66.9041 237.604 66.9041C238.273 66.7702 238.942 66.5023 239.611 66.2344C241.885 65.2968 243.892 63.8234 245.898 62.484L246.433 62.0822L247.102 61.5464C247.503 61.2785 248.038 60.8767 248.44 60.6088C249.777 59.8052 251.249 59.1355 252.988 58.5997H253.122C253.389 58.5997 253.523 58.4658 253.791 58.4658C254.326 58.3318 254.861 58.1979 255.262 58.0639C256.733 57.796 258.205 57.6621 259.81 57.6621C259.944 57.6621 260.078 57.6621 260.211 57.6621C261.817 57.6621 263.422 57.93 264.893 58.3318C265.696 58.5997 266.365 58.8676 267.034 59.2694C267.301 59.4034 267.569 59.5373 267.836 59.6712C267.167 58.3318 266.231 56.9924 264.893 55.7869C263.689 54.7154 262.352 53.6438 260.613 52.7062C257.67 50.965 254.058 49.8935 250.313 49.3577C249.109 49.2238 247.905 49.0898 246.701 49.0898C246.433 48.9559 245.764 48.9559 245.096 48.9559Z" fill="#01C0B9"/>
<path d="M242.554 51.9026C240.948 52.1705 239.343 52.8402 237.738 53.5099C236.935 53.9117 236.133 54.3135 235.33 54.7154C234.527 55.1172 233.859 55.653 233.19 56.0548C232.521 56.4566 232.387 57.3942 232.788 58.0639C233.324 58.8676 234.528 59.0015 235.063 58.1979C235.33 57.796 235.731 57.5282 235.999 57.1263C236.133 56.9924 236.266 56.9924 236.266 56.8584C236.802 56.3227 237.337 55.9209 238.006 55.519C238.541 55.1172 239.209 54.8493 239.745 54.4475C240.547 54.0457 241.35 53.7778 242.152 53.376C243.089 53.1081 243.891 52.7062 244.828 52.5723C244.828 52.5723 244.828 52.5723 244.694 52.5723C246.299 52.3044 247.771 52.1705 249.376 52.1705C249.376 52.1705 249.376 52.1705 249.51 52.1705C250.446 52.1705 251.382 52.3044 252.319 52.5723C252.453 52.5723 252.72 52.4384 252.72 52.3044C252.72 52.1705 252.586 51.9026 252.453 51.9026C250.847 51.5008 249.242 51.3668 247.637 51.3668C247.503 51.3668 247.503 51.3668 247.369 51.3668C245.898 51.5008 244.159 51.6347 242.554 51.9026ZM236.668 56.7245L236.534 56.8584C236.534 56.8584 236.534 56.7245 236.668 56.7245Z" fill="#FEFEFE"/>
<path d="M362.946 27.2573C357.595 27.927 352.244 28.8646 346.492 30.204C336.058 32.6149 325.357 36.0974 314.521 40.6515C309.304 42.7945 304.355 45.2055 299.673 47.7504C294.857 50.2953 289.908 53.1081 284.691 56.5906C275.728 62.3501 266.766 69.1811 257.402 77.3516C253.255 80.968 249.108 84.7184 244.694 89.1385C241.082 92.621 237.336 96.5053 232.387 101.729C229.444 104.81 226.635 107.89 223.826 110.971C219.411 115.793 214.997 120.615 210.315 125.437C201.754 134.277 194.263 141.242 186.638 147.135L186.504 147.269L186.37 147.403C173.528 157.315 162.158 164.146 150.787 169.102H150.921C147.042 170.709 143.163 172.049 139.283 173.254C135.27 174.46 130.99 175.263 126.575 175.933C122.963 176.335 119.485 176.603 115.874 176.603H115.606C112.262 176.603 108.784 176.335 105.038 175.933C103.567 175.799 102.229 175.531 100.758 175.263C102.764 172.316 104.637 169.37 106.376 166.423C108.115 163.208 109.72 159.726 111.058 155.44C113.599 147.805 114.937 139.903 114.803 132.134C114.803 128.651 114.536 125.035 114.001 121.552C113.733 120.079 113.466 118.472 113.198 116.998C112.262 111.641 111.192 107.355 109.854 103.47C109.051 100.925 108.115 99.0502 107.179 97.309C106.376 95.9695 105.172 94.0943 103.433 92.8889C102.63 92.3531 101.828 91.9513 100.891 91.8173C100.624 91.6834 100.222 91.6834 99.8212 91.6834C99.2861 91.6834 98.751 91.8173 98.2159 91.9513C97.5471 92.0852 96.8783 92.487 96.0756 93.1568C95.273 93.8265 94.6042 94.6301 93.9353 95.2998C92.3301 97.175 90.9924 99.452 90.056 101.327C88.9858 103.336 87.7819 105.613 86.578 108.426C85.7754 110.301 84.9727 112.177 83.9026 114.855L83.7688 115.391C83.2337 116.731 82.5649 118.204 82.0298 119.543C79.3544 126.642 77.883 133.741 77.6154 140.84C77.3479 148.341 78.6856 155.44 81.361 162.003C78.1505 158.52 74.8063 155.038 71.0607 151.555C68.3853 149.011 65.5762 146.6 62.767 144.055C59.4228 141.108 56.8811 139.099 54.4733 137.224C51.2628 134.813 48.1861 132.804 45.1094 131.196C41.7652 129.455 38.4209 128.25 35.2105 127.714C33.8728 127.446 32.5351 127.312 31.0636 127.312C30.7961 127.312 30.5285 127.312 30.261 127.312C28.9233 127.312 27.7194 127.58 26.5154 127.982C24.6427 128.651 23.1712 130.125 22.5023 131.866C21.9673 133.473 21.9673 135.348 22.3686 137.893C22.7699 140.304 23.5725 142.581 24.3751 144.724C24.6427 145.394 24.9102 146.198 25.1777 146.868L25.579 148.073C25.8466 148.609 25.9804 149.278 26.2479 149.814C26.5154 150.484 26.783 151.154 26.9167 151.823C27.9869 154.77 29.3246 157.717 30.7961 160.396C32.2675 163.074 34.0065 165.485 35.7455 167.762C37.4845 169.906 39.4911 171.915 41.6314 173.79C45.5107 177.138 50.1927 179.951 55.5434 182.228C60.3591 184.237 65.7099 185.711 71.8633 186.916C77.2141 187.854 82.8324 188.39 89.6547 188.791C89.9222 188.791 90.3235 188.791 90.5911 188.791H90.7248C97.1458 199.507 103.165 208.883 109.185 217.321C116.141 226.965 123.632 236.073 131.257 244.243C138.347 251.878 146.373 259.245 154.8 266.21C161.221 271.434 167.91 276.389 174.866 280.943C176.471 281.613 178.076 282.149 179.682 282.819C185.835 284.962 191.988 286.837 198.276 288.31C204.563 289.784 210.85 290.721 217.271 291.391C217.137 291.391 217.137 291.391 217.003 291.391C222.622 291.927 228.374 292.061 234.126 291.793C239.477 291.525 244.961 290.989 250.178 290.052C254.994 289.248 259.676 288.042 264.224 286.569C268.772 285.096 273.32 283.354 277.601 281.211C281.882 279.068 286.162 276.791 290.175 274.112C294.322 271.434 298.202 268.353 301.947 265.138C306.763 260.986 311.177 256.566 315.458 251.878C321.477 245.315 326.962 238.484 332.447 231.519C337.931 224.554 343.282 217.589 349.034 210.892C354.652 204.195 360.672 197.632 367.227 191.738C370.437 188.925 373.648 186.113 377.126 183.568C380.604 181.023 384.349 178.612 388.095 176.335C403.211 167.495 419.932 161.601 437.188 158.922C443.877 157.851 450.699 157.315 457.387 157.315C459.394 157.315 461.267 157.315 463.273 157.449C468.223 157.717 473.172 157.985 478.122 158.52C480.663 158.788 483.071 159.19 485.613 159.592C485.479 154.368 484.944 149.011 483.874 142.983C482.937 137.492 481.6 131.866 479.727 125.839C476.65 115.659 472.102 105.078 466.082 93.4246C463.674 88.7367 460.865 83.7808 457.922 78.691C455.381 74.5388 452.705 70.3866 450.03 66.5023C444.278 58.1979 438.258 51.5008 431.837 45.8752C428.493 42.9285 425.015 40.2496 421.136 37.8387C417.524 35.5617 413.377 33.5525 408.963 31.6774C400.401 28.1949 390.369 26.4536 379.266 26.1857C378.597 26.1857 377.928 26.1857 377.259 26.1857C372.979 26.4536 368.163 26.7215 362.946 27.2573Z" fill="#5DD2CE"/>
<path d="M455.113 151.689C453.776 151.689 452.304 151.689 450.699 151.823C448.692 151.957 446.686 152.091 444.679 152.225C438.526 152.895 432.506 153.966 426.487 155.574C423.276 156.377 420.333 157.315 417.524 158.253C414.581 159.19 411.638 160.262 408.695 161.467C401.338 164.28 394.248 167.629 387.426 171.513C383.948 173.522 380.737 175.397 377.795 177.272C374.852 179.148 372.042 181.157 369.367 183.032C366.959 184.907 364.819 186.514 362.812 188.256C360.405 190.265 358.264 192.408 356.258 194.551C354.117 196.694 352.111 198.971 350.238 201.248C348.232 203.525 346.359 205.802 344.486 208.213C342.613 210.49 340.874 212.767 339.135 215.312L336.326 219.062L335.122 220.67C333.651 222.679 332.179 224.688 330.574 226.697C328.166 229.912 325.223 233.796 322.146 237.546C319.07 241.163 316.127 244.645 313.05 247.86C309.706 251.342 306.495 254.423 303.285 257.37C299.807 260.584 296.329 263.397 292.851 265.942C289.105 268.755 285.627 271.166 282.149 273.309C278.136 275.72 274.123 277.863 270.244 279.738C266.097 281.613 261.95 283.354 258.071 284.56C255.663 285.364 253.389 286.033 251.249 286.569C248.974 287.105 246.7 287.641 244.56 288.042C239.477 288.98 234.795 289.65 230.38 290.052C227.17 290.319 223.96 290.453 220.883 290.453C219.01 290.453 217.539 290.453 216.201 290.319C211.519 290.052 207.105 289.65 202.958 288.846C198.276 288.042 193.861 286.971 189.447 285.632C185.033 284.292 180.752 282.685 176.605 280.81C174.063 279.738 171.522 278.399 168.846 277.193C172.191 279.604 175.936 282.149 179.949 284.694C197.206 295.409 215.666 303.714 234.795 309.205C252.319 314.295 270.511 316.84 288.704 316.84C290.309 316.84 291.781 316.84 293.386 316.84C313.318 316.304 333.383 312.554 352.78 305.589C362.144 302.24 371.641 297.954 381.273 292.73C389.299 288.31 397.325 283.622 405.084 278.533C413.244 273.175 421.27 267.415 428.761 261.254C436.787 254.825 444.144 247.994 450.699 240.895C457.655 233.528 463.675 225.893 468.758 217.991C473.975 209.82 478.122 201.382 481.065 192.676C482.67 188.122 483.874 183.166 484.677 177.942C485.613 172.45 486.014 166.691 485.88 160.664C485.88 159.86 485.88 159.056 485.747 158.253C485.345 158.119 485.078 157.985 484.81 157.851C482.001 156.645 479.326 155.708 476.784 155.038C475.313 154.636 473.841 154.234 472.637 153.966C471.166 153.699 469.828 153.431 468.357 153.163C464.344 152.627 460.464 152.225 456.719 152.225C456.184 151.689 455.648 151.689 455.113 151.689Z" fill="#EBFAF8"/>
<path d="M453.374 151.823C452.17 160.128 450.298 168.432 447.756 176.335C441.469 196.158 431.837 214.91 420.066 232.055C409.097 247.86 396.121 262.326 381.54 274.916C366.959 287.507 350.773 298.356 333.115 306.125C324.42 310.009 315.458 313.09 306.228 315.233C305.425 315.367 304.622 315.635 303.82 315.769C320.407 314.429 336.727 310.813 352.78 305.053C358.13 303.178 363.615 300.901 369.099 298.356C380.604 292.195 391.439 284.828 401.605 276.39L401.338 276.524C404.415 273.979 407.358 271.3 410.3 268.621C422.473 257.236 433.443 244.511 442.94 230.849C442.94 230.983 442.806 230.983 442.806 231.117C444.545 228.706 446.151 226.161 447.756 223.75C456.451 210.222 463.808 195.89 469.427 180.755C470.898 176.737 472.102 172.718 473.038 168.566C473.975 164.548 474.644 160.396 475.045 156.244C475.045 155.574 475.179 155.038 475.179 154.368C474.242 154.101 473.306 153.967 472.503 153.699C471.032 153.431 469.694 153.163 468.223 152.895C464.343 152.359 460.464 151.957 456.451 151.957C455.916 151.957 455.381 151.957 454.846 151.957C454.578 151.823 453.909 151.823 453.374 151.823Z" fill="#A8EEE4"/>
<path d="M476.115 164.28C475.313 168.834 474.109 173.388 472.637 177.808C471.3 181.692 469.828 185.577 468.223 189.461C466.752 193.077 465.013 196.694 463.274 200.31C456.05 215.044 447.355 229.108 437.188 242.1C427.022 255.226 415.384 267.415 402.542 278.131C399.599 280.542 396.523 282.952 393.446 285.229C397.325 282.952 401.204 280.542 404.95 277.997C413.11 272.639 421.136 266.879 428.627 260.718C436.653 254.289 444.011 247.458 450.565 240.359C457.388 232.992 463.541 225.357 468.624 217.589C473.841 209.418 477.988 200.98 480.931 192.274C482.536 187.72 483.74 182.764 484.543 177.54C485.479 172.048 485.881 166.289 485.747 160.262C485.747 159.458 485.747 158.654 485.613 157.851C485.346 157.717 484.944 157.583 484.677 157.449H484.81C482.269 156.377 479.727 155.44 477.186 154.636C477.052 157.985 476.65 161.065 476.115 164.28Z" fill="#A8EEE4"/>
<path d="M450.699 151.823C448.692 151.957 446.686 152.091 444.679 152.225C438.526 152.895 432.506 153.966 426.487 155.574C423.41 156.377 420.467 157.181 417.524 158.253C416.722 158.52 415.919 158.788 415.116 159.056C414.581 162.807 413.912 166.557 413.11 170.307C411.237 178.746 408.829 187.184 405.752 195.355C401.873 205.534 397.057 215.446 391.305 224.822C386.49 232.858 381.005 240.493 374.985 247.726C363.08 262.058 349.168 274.648 333.651 284.828C318.267 294.873 301.278 302.508 283.487 306.928C274.524 309.205 265.294 310.545 256.198 311.08C252.319 311.348 248.439 311.348 244.694 311.214C257.937 314.295 271.448 316.036 285.092 316.304C289.239 316.036 293.386 315.635 297.533 314.965C310.107 312.822 322.414 308.937 334.052 303.58C334.052 303.58 334.052 303.58 334.186 303.58C334.186 303.58 334.186 303.58 334.052 303.58C349.703 296.481 364.15 286.971 377.393 275.988H377.26C378.062 275.318 378.731 274.648 379.534 273.979C394.115 261.388 407.09 247.056 418.193 231.251C418.193 231.251 418.193 231.251 418.193 231.385C428.493 216.651 437.055 200.846 443.208 183.969C447.087 173.522 449.896 162.673 451.502 151.689C451.1 151.823 450.967 151.823 450.699 151.823ZM377.126 276.122C376.992 276.122 377.126 276.122 377.126 276.122C376.992 276.122 377.126 276.122 377.126 276.122ZM334.186 303.446C334.052 303.58 334.186 303.58 334.186 303.446C334.052 303.58 334.186 303.58 334.186 303.446Z" fill="#A8EEE4"/>
<path d="M408.695 161.333C401.472 164.146 394.248 167.495 387.426 171.379C385.687 172.317 383.814 173.388 382.075 174.46C382.075 174.594 382.075 174.594 382.075 174.728C379.4 185.041 375.52 194.953 370.839 204.463C366.023 214.107 360.405 223.349 354.117 232.189C347.83 240.895 341.008 249.065 333.383 256.566C329.638 260.183 325.892 263.799 321.879 267.148C317.866 270.496 313.719 273.577 309.438 276.524C301.011 282.149 291.914 286.837 282.417 290.453C273.053 294.07 263.288 296.615 253.389 298.088C243.356 299.562 233.19 299.963 223.157 299.16C218.074 298.758 212.99 298.088 207.907 297.151C205.499 296.749 203.225 296.213 200.817 295.677C211.786 301.035 223.291 305.321 234.929 308.804C246.968 309.875 259.141 309.339 271.18 307.464C284.691 305.187 297.934 301.169 310.508 295.409C310.375 295.409 310.375 295.543 310.241 295.543C324.287 289.114 337.53 280.676 349.435 270.764C349.435 270.764 349.435 270.764 349.302 270.898C362.144 260.183 373.38 247.726 383.012 234.064C383.012 234.064 383.012 234.064 383.012 233.93C383.012 233.93 383.012 233.796 383.145 233.796C387.292 227.769 391.172 221.473 394.65 215.044C398.395 207.945 401.739 200.578 404.548 193.078L404.682 192.81C404.682 192.81 404.682 192.81 404.682 192.944C407.224 186.113 409.23 179.148 410.836 172.183C411.772 168.164 412.575 164.012 413.11 159.86C411.505 160.262 410.033 160.798 408.695 161.333Z" fill="#A8EEE4"/>
<path d="M377.661 177.138C374.852 179.013 372.042 180.889 369.233 182.898C369.233 182.898 369.233 182.898 369.367 182.898C367.093 184.639 364.953 186.38 362.812 188.121C360.538 190.131 358.264 192.14 356.258 194.417C354.117 196.56 352.111 198.837 350.238 201.114C348.231 203.391 346.359 205.668 344.486 208.079C342.613 210.356 340.874 212.767 339.135 215.178C336.326 218.928 333.517 222.678 330.708 226.429C327.899 230.045 325.223 233.662 322.28 237.278C319.337 240.761 316.394 244.243 313.184 247.592C310.107 250.806 306.897 254.021 303.419 257.102C300.074 260.182 296.596 262.995 292.985 265.674C289.507 268.219 285.895 270.764 282.149 273.041C278.27 275.318 274.391 277.595 270.244 279.47C266.364 281.345 262.218 282.952 258.071 284.292C255.797 285.095 253.523 285.765 251.249 286.301C248.974 286.837 246.834 287.373 244.56 287.774C239.878 288.712 235.196 289.382 230.38 289.783C225.699 290.185 221.017 290.319 216.201 290.051C211.786 289.783 207.372 289.382 202.958 288.578C198.41 287.774 193.861 286.703 189.447 285.363C185.033 284.024 180.752 282.417 176.605 280.541C173.93 279.336 171.388 278.131 168.846 276.925C172.458 279.47 176.204 282.015 179.949 284.292C184.096 286.837 188.243 289.248 192.524 291.525C192.657 291.525 192.791 291.525 192.925 291.525C201.754 294.204 210.85 295.945 220.08 296.882C219.946 296.882 219.946 296.882 219.813 296.882C231.451 297.954 243.222 297.686 254.727 295.811C266.498 293.802 278.002 290.319 288.972 285.363C300.342 280.14 311.044 273.443 320.675 265.406C320.675 265.406 320.675 265.406 320.541 265.54C326.962 260.182 332.982 254.289 338.466 248.127C344.085 241.832 349.302 235.269 354.251 228.438C363.08 215.847 370.437 202.319 375.788 187.854C377.259 183.969 378.463 180.085 379.534 176.067C378.865 176.335 378.33 176.736 377.661 177.138ZM289.239 285.229C289.239 285.229 289.105 285.229 289.105 285.363C289.105 285.229 289.239 285.229 289.239 285.229Z" fill="#A8EEE4"/>
<path d="M172.191 279.068C171.923 278.8 171.522 278.666 171.254 278.399C174.064 280.408 177.006 282.283 180.083 284.292C184.23 286.837 188.511 289.382 192.657 291.525H192.791C192.925 291.525 192.925 291.525 193.059 291.525C199.881 293.534 206.971 295.141 214.194 296.213C216.201 296.481 218.207 296.749 220.214 296.883H220.08H220.214C224.495 297.284 228.909 297.552 233.323 297.552C240.681 297.552 247.904 297.017 255.128 295.811C264.759 294.204 274.123 291.659 283.22 288.042C273.856 287.641 264.492 286.703 255.262 285.23C254.325 285.498 253.389 285.765 252.453 286.033C252.185 286.167 251.784 286.167 251.516 286.301C249.242 286.837 246.968 287.373 244.828 287.775C239.744 288.712 235.062 289.382 230.648 289.784C227.304 290.052 224.093 290.185 221.15 290.185C219.411 290.185 217.94 290.185 216.468 290.052C211.787 289.784 207.372 289.382 203.225 288.578C200.416 288.042 197.741 287.507 195.065 286.837C193.193 286.435 191.454 285.899 189.715 285.364C188.778 285.096 187.842 284.828 186.905 284.426C184.364 283.622 181.956 282.685 179.548 281.613C178.612 281.211 177.809 280.943 176.873 280.542C175.535 280.006 174.197 279.336 172.86 278.666C171.656 278.131 170.452 277.461 169.248 276.925C170.184 277.595 171.254 278.399 172.191 279.068Z" fill="#91EEE2"/>
<path d="M292.316 288.042C290.844 288.042 289.373 288.042 287.901 288.042C286.162 288.846 284.29 289.65 282.417 290.319C273.053 293.936 263.288 296.481 253.389 297.954C246.7 298.892 240.012 299.427 233.323 299.427C229.979 299.427 226.635 299.294 223.157 299.026C218.074 298.624 212.857 297.954 207.907 297.017L207.105 296.883C205.366 296.615 203.627 296.213 202.021 295.811C201.754 295.677 201.353 295.677 201.085 295.543C210.048 299.963 219.545 303.714 229.043 306.794C231.049 307.464 233.056 308 235.062 308.669C239.209 309.071 243.49 309.205 247.771 309.205C255.663 309.205 263.555 308.536 271.314 307.33C284.691 305.187 297.934 301.035 310.642 295.275C317.063 292.329 323.484 288.846 329.771 284.962C317.197 287.105 304.756 288.176 292.316 288.042Z" fill="#91EEE2"/>
<path d="M366.558 275.72C361.073 277.461 355.589 279.202 350.104 280.542C345.021 281.881 339.804 283.086 334.587 284.024L333.651 284.56C317.732 295.007 300.877 302.374 283.487 306.66C274.391 308.937 265.161 310.277 256.198 310.812C253.389 310.946 250.58 311.08 247.904 311.08C246.968 311.08 246.032 311.08 245.095 311.08C244.961 311.08 244.828 311.08 244.694 311.08C257.803 314.161 271.448 315.902 284.958 316.17C288.972 315.902 293.252 315.5 297.399 314.831C309.572 312.822 321.879 308.937 333.918 303.446C348.767 296.615 363.347 287.373 377.126 275.854C377.795 275.318 378.597 274.648 379.4 273.978C381.54 272.103 383.68 270.228 385.821 268.219C379.534 271.032 373.113 273.577 366.558 275.72Z" fill="#91EEE2"/>
<path d="M424.748 246.654C415.919 252.816 406.689 258.441 397.058 263.263C395.185 264.201 393.312 265.138 391.306 265.942C391.306 265.942 391.306 265.942 391.439 265.942C388.229 269.157 384.885 272.103 381.674 274.916C366.291 288.176 349.971 298.758 333.25 306.125C324.153 310.143 315.191 313.224 306.362 315.233L305.827 315.367C305.292 315.501 304.623 315.634 304.088 315.768C304.757 315.768 305.426 315.634 306.228 315.634C309.439 315.367 312.515 314.965 315.592 314.563H315.86C328.3 312.822 340.741 309.607 353.048 305.187C358.398 303.312 363.883 301.035 369.367 298.49C378.062 293.936 386.757 288.31 395.185 281.881C397.325 280.14 399.599 278.399 401.74 276.657L401.606 276.791C404.415 274.514 407.492 271.835 410.568 269.023C421.671 258.709 431.972 247.056 441.068 234.332C435.717 238.484 430.233 242.636 424.748 246.654Z" fill="#91EEE2"/>
<path d="M469.962 202.587C463.541 211.026 456.585 219.062 448.96 226.429C448.425 226.965 447.89 227.5 447.355 227.902C447.355 227.902 447.355 227.902 447.355 228.036C447.355 228.036 447.355 228.036 447.488 227.902C444.278 232.724 440.934 237.412 437.456 241.832C427.022 255.36 415.384 267.415 402.809 277.863C400.401 279.872 397.86 281.881 395.452 283.622C394.917 284.024 394.382 284.426 393.847 284.828C397.458 282.684 401.204 280.408 405.217 277.729C413.377 272.371 421.403 266.611 428.894 260.45C436.921 254.021 444.278 247.19 450.833 240.091C457.789 232.724 463.808 225.089 468.891 217.321C474.108 209.15 478.255 200.712 481.198 192.006L481.466 191.336L481.733 190.532C482.67 187.72 483.472 184.639 484.141 181.424C479.727 188.925 475.045 196.024 469.962 202.587Z" fill="#91EEE2"/>
<path d="M22.6364 132.134C22.1013 133.741 22.1013 135.616 22.5026 138.161C22.9039 140.572 23.7065 142.983 24.5092 144.992C24.7767 145.662 24.9105 146.198 25.178 146.868L25.3118 147.135L25.7131 148.341C25.8469 148.743 25.9806 149.145 26.1144 149.68L26.2482 150.082C26.5157 150.752 26.7832 151.422 26.917 152.091C27.9872 155.038 29.3249 157.985 30.9301 160.664C32.4016 163.208 34.0068 165.753 35.8796 168.03C37.6186 170.173 39.6251 172.183 41.7654 174.058C45.6448 177.406 50.3267 180.219 55.6775 182.496C60.4932 184.505 65.844 185.979 71.9974 187.184C77.3482 188.122 82.9665 188.657 89.7887 189.059C90.0563 189.059 90.4576 189.059 90.7251 189.059H90.8589C97.2798 199.775 103.299 209.017 109.319 217.589C116.275 227.233 123.766 236.341 131.391 244.511C138.615 252.146 146.507 259.513 154.935 266.478C159.349 270.094 164.031 273.711 168.847 277.059C171.522 278.399 174.197 279.604 176.605 280.676C180.752 282.417 185.033 284.024 189.447 285.498C193.728 286.837 198.276 287.908 202.958 288.712C207.105 289.382 211.653 289.918 216.201 290.186C217.673 290.319 219.144 290.319 220.883 290.319C223.826 290.319 227.036 290.186 230.381 289.918C234.795 289.516 239.343 288.98 244.56 287.908C246.701 287.507 248.975 286.971 251.249 286.435C252.453 286.167 253.657 285.765 254.994 285.364C254.459 285.23 253.924 285.23 253.255 285.096C240.28 282.819 227.438 279.604 214.863 275.318C202.423 271.032 190.383 265.942 178.746 259.781C172.86 256.7 166.974 253.351 161.355 249.869C155.603 246.253 150.119 242.636 144.634 238.618C139.417 234.733 134.2 230.581 129.385 226.161C124.569 221.741 119.887 217.053 115.473 212.097C111.058 207.141 106.777 201.918 102.764 196.694C101.56 195.221 100.49 193.613 99.4202 192.14C98.6175 191.068 97.8149 189.863 97.0123 188.791C95.9421 187.318 94.7382 185.845 93.2667 184.639C92.8654 184.371 92.4641 183.969 91.929 183.702C91.5277 183.434 90.9927 183.166 90.5914 183.032C88.8523 182.362 86.9796 181.826 85.1068 181.559C83.1003 181.157 81.0937 180.755 79.0872 180.353C75.2078 179.415 71.3285 178.478 67.583 177.138C63.7037 175.799 59.8243 174.326 56.0788 172.584C52.467 170.843 48.989 168.968 45.6448 166.691C42.3005 164.414 39.2238 161.869 36.4147 159.056C33.873 156.377 31.4652 153.431 29.4586 150.216C27.5859 146.198 25.9806 142.581 24.9105 138.697C24.3754 136.688 23.9741 134.679 23.7065 132.67C23.5728 132 23.5728 131.33 23.439 130.661C23.1715 131.062 22.9039 131.464 22.6364 132.134Z" fill="#4ABBB6"/>
<path d="M93.267 184.237C93.1332 184.103 93.267 184.103 93.267 184.237C93.1332 184.103 93.267 184.103 93.267 184.237Z" fill="#4ABBB6"/>
<path d="M259.141 210.892C258.071 210.892 256.867 211.026 255.797 211.16C253.924 211.427 252.185 211.963 250.58 212.633C249.777 213.035 249.108 213.437 248.172 213.972C247.369 214.508 246.7 215.178 246.032 215.848C245.764 216.115 245.764 216.517 245.764 216.785C244.961 217.991 244.159 219.062 243.356 219.866C240.948 222.545 238.273 225.09 235.731 227.5L234.126 229.108C230.648 232.456 227.304 235.671 224.361 239.287C222.221 241.832 219.679 245.449 219.01 249.333C218.743 250.94 218.876 252.682 219.545 254.155C220.214 255.628 221.418 257.102 223.157 258.307C224.093 258.977 225.297 259.647 226.234 260.048C227.304 260.584 228.508 261.12 229.979 261.522C233.19 262.593 236.668 263.263 240.279 263.531C241.617 263.665 242.955 263.665 244.292 263.665C246.433 263.665 248.707 263.531 250.981 263.263C254.459 262.861 257.937 262.058 261.415 260.986C268.371 258.843 274.792 255.494 280.277 251.208C283.219 248.931 285.761 246.386 287.5 243.574C289.507 240.493 290.577 237.278 290.711 234.064C290.844 230.715 289.774 227.367 287.634 224.42C286.43 222.679 284.825 221.071 282.551 219.33C280.544 217.857 278.27 216.383 275.461 215.044C272.919 213.838 270.244 212.767 267.435 212.097C264.759 211.294 261.95 210.892 259.141 210.892Z" fill="#5DD2CE"/>
<path d="M284.825 246.118C282.016 247.86 278.939 249.333 275.728 250.539C274.123 251.208 272.384 251.744 270.779 252.28C268.772 252.816 266.9 253.485 264.893 253.887C261.014 254.825 257.001 255.628 252.988 256.164C248.974 256.566 244.961 256.7 240.948 256.298C239.878 256.164 238.808 256.03 237.738 255.896C236.801 255.762 235.999 255.628 235.062 255.36C233.992 255.093 232.922 254.825 231.986 254.423C230.782 254.021 229.578 253.485 228.508 252.95C227.438 252.414 226.234 251.744 225.297 250.94C224.361 250.271 223.424 249.467 222.622 248.529C222.221 248.128 221.819 247.592 221.552 247.056C221.284 246.654 221.017 246.118 220.883 245.583C220.749 245.315 220.749 245.047 220.615 244.779C219.946 246.118 219.411 247.592 219.144 249.199C218.876 250.806 219.01 252.414 219.679 254.021C220.348 255.494 221.552 256.968 223.291 258.173C224.227 258.843 225.431 259.513 226.367 259.915C227.438 260.45 228.641 260.986 230.113 261.388C233.323 262.459 236.801 263.129 240.413 263.397C241.751 263.531 243.089 263.531 244.426 263.531C246.567 263.531 248.841 263.397 251.115 263.129C254.593 262.727 258.071 261.924 261.549 260.852C268.505 258.709 274.926 255.36 280.41 251.074C283.086 249.065 285.36 246.654 287.099 244.243C286.43 245.047 285.627 245.583 284.825 246.118Z" fill="#4ABBB6"/>
<path d="M244.292 218.124C243.356 219.33 242.286 220.535 241.216 221.607C240.146 222.812 238.942 223.884 237.738 224.956C235.33 227.233 232.788 229.376 230.38 231.519C227.973 233.796 225.565 236.073 223.558 238.618C222.622 239.823 221.685 241.163 220.883 242.502C220.481 243.172 220.08 243.841 219.813 244.511C219.411 245.315 219.01 246.118 218.742 246.922C218.475 247.726 218.341 248.395 218.207 249.199C218.074 250.003 218.207 250.806 218.207 251.476C218.341 252.146 218.475 252.815 218.742 253.485C219.01 254.155 219.278 254.691 219.679 255.36C221.284 257.905 223.826 259.647 226.367 260.986C229.578 262.593 232.922 263.397 236.4 264.067C238.407 264.468 240.547 264.602 242.687 264.602C244.828 264.602 246.834 264.468 248.974 264.334C250.981 264.067 252.987 263.799 254.86 263.397C256.867 262.995 258.873 262.459 260.746 261.924C264.09 260.852 267.435 259.647 270.645 258.039C273.856 256.566 276.798 254.691 279.608 252.548C282.551 250.405 285.226 247.994 287.634 245.181C287.768 245.047 287.768 244.913 287.634 244.645C287.5 244.511 287.233 244.511 287.099 244.645C284.958 247.056 282.684 249.199 280.009 251.074C275.862 253.887 271.314 256.164 266.632 257.905C266.632 257.905 266.632 257.905 266.766 257.905H266.632H266.498C266.498 257.905 266.498 257.905 266.632 257.905C264.09 258.843 261.549 259.647 258.873 260.316C255.663 261.12 252.586 261.79 249.242 262.191C247.369 262.325 245.363 262.459 243.49 262.325C241.617 262.325 239.611 262.057 237.738 261.79H237.872H237.738H237.604C237.604 261.79 237.604 261.79 237.738 261.79C235.865 261.522 233.992 260.986 232.119 260.45C230.916 260.048 229.578 259.647 228.374 259.111C226.769 258.441 225.297 257.503 223.96 256.432C223.157 255.762 222.488 255.092 221.819 254.289C221.418 253.753 221.15 253.083 220.883 252.414C220.749 251.878 220.615 251.342 220.481 250.672C220.481 250.003 220.481 249.467 220.481 248.797C220.615 247.726 221.017 246.788 221.418 245.717C222.488 243.44 223.826 241.296 225.431 239.421C228.508 235.805 231.986 232.724 235.464 229.51C237.203 227.902 238.942 226.295 240.547 224.554C242.152 222.812 243.757 221.071 245.095 219.196C245.363 218.928 245.229 218.526 244.961 218.258C244.828 218.124 244.56 217.991 244.426 217.991C244.56 217.857 244.292 217.991 244.292 218.124ZM225.832 239.421L225.699 239.555L225.832 239.421ZM221.819 245.717C221.685 245.717 221.685 245.85 221.819 245.717C221.685 245.717 221.685 245.85 221.819 245.717ZM228.508 258.977C228.641 258.977 228.775 259.111 228.775 259.111C228.775 259.111 228.641 259.111 228.508 258.977Z" fill="#119C97"/>
<path d="M282.818 86.9953C286.43 91.2815 295.259 89.942 302.483 83.7807C309.706 77.7533 312.649 69.315 309.037 64.8949C305.425 60.6087 296.597 61.9481 289.373 68.1095C282.15 74.2708 279.207 82.7092 282.818 86.9953Z" fill="#A8EEE4"/>
<path d="M256.198 102.934C258.338 105.077 263.02 103.872 266.498 100.256C270.11 96.6391 271.18 92.0851 269.04 89.942C266.899 87.799 262.217 89.0044 258.739 92.6209C255.261 96.1034 254.057 100.791 256.198 102.934Z" fill="#A8EEE4"/>
<path d="M346.359 52.8403C346.894 55.5191 351.71 56.8585 357.194 55.921C362.679 54.9834 366.826 52.0366 366.424 49.3578C365.889 46.679 361.074 45.3395 355.589 46.2771C350.104 47.2147 345.958 50.1614 346.359 52.8403Z" fill="#A8EEE4"/>
<path d="M320.408 56.1885C321.611 58.4656 324.956 58.8674 327.899 57.2601C330.842 55.6528 332.313 52.5721 331.109 50.2951C329.905 48.0181 326.561 47.6163 323.618 49.2236C320.675 50.8309 319.204 53.9115 320.408 56.1885Z" fill="#A8EEE4"/>
<path d="M228.642 138.027C230.381 139.768 233.859 139.233 236.133 136.822C238.541 134.411 238.942 131.062 237.203 129.321C235.464 127.58 231.986 128.115 229.712 130.526C227.304 132.803 226.769 136.286 228.642 138.027Z" fill="#A8EEE4"/>
<path d="M244.828 116.328C245.63 117.132 247.235 116.864 248.306 115.793C249.376 114.721 249.643 113.114 248.841 112.31C248.038 111.507 246.433 111.774 245.363 112.846C244.292 113.918 244.025 115.525 244.828 116.328Z" fill="#A8EEE4"/>
<path d="M279.876 106.417C280.678 107.221 282.283 106.953 283.354 105.881C284.424 104.81 284.691 103.202 283.889 102.399C283.086 101.595 281.481 101.863 280.411 102.934C279.207 104.14 279.073 105.613 279.876 106.417Z" fill="#A8EEE4"/>
<path d="M322.146 69.9847C322.548 70.9223 323.885 71.1902 325.089 70.5205C326.293 69.9847 326.962 68.7792 326.561 67.8416C326.16 66.904 324.822 66.6361 323.618 67.3059C322.414 67.9756 321.745 69.0471 322.146 69.9847Z" fill="#A8EEE4"/>
<path d="M340.607 170.709C344.085 170.709 346.894 165.887 347.028 159.726C347.162 153.565 344.353 148.609 340.875 148.609C337.397 148.609 334.588 153.431 334.454 159.592C334.32 165.619 337.129 170.575 340.607 170.709Z" fill="#197967"/>
<path d="M465.28 134.009C468.223 132.268 468.223 126.508 465.012 121.285C461.935 116.061 456.986 113.248 453.909 114.989C450.966 116.73 450.966 122.49 454.177 127.714C457.387 132.937 462.337 135.75 465.28 134.009Z" fill="#197967"/>
<path d="M343.951 157.047C342.881 157.315 341.276 156.109 340.607 154.368C339.804 152.627 340.072 150.886 341.276 150.618C342.346 150.35 343.951 151.555 344.62 153.297C345.289 155.038 345.021 156.779 343.951 157.047Z" fill="#FEFEFE"/>
<path d="M344.219 159.994C343.55 159.994 342.881 159.592 342.881 158.922C342.881 158.253 343.282 157.717 343.951 157.717C344.62 157.717 345.289 158.119 345.289 158.788C345.422 159.324 344.887 159.86 344.219 159.994Z" fill="#FEFEFE"/>
<path d="M461.668 121.285C460.866 122.088 458.859 121.686 457.388 120.347C455.916 119.008 455.381 117.4 456.184 116.731C456.986 115.927 458.993 116.329 460.464 117.668C461.936 118.874 462.471 120.481 461.668 121.285Z" fill="#FEFEFE"/>
<path d="M463.14 123.695C462.605 124.097 461.802 123.963 461.535 123.428C461.133 122.892 461.401 122.222 461.936 121.82C462.471 121.418 463.274 121.552 463.541 122.088C463.942 122.624 463.675 123.294 463.14 123.695Z" fill="#FEFEFE"/>
<path d="M403.746 127.58C403.211 127.714 402.81 128.25 402.943 128.785C403.211 129.991 403.345 131.196 403.478 132.402V132.268C403.478 132.402 403.478 132.402 403.478 132.536C403.612 133.741 403.478 134.947 403.345 136.018C403.211 136.822 402.943 137.626 402.542 138.429C402.274 139.099 401.873 139.635 401.472 140.17C401.071 140.706 400.535 141.108 400 141.51C399.465 141.912 398.796 142.313 398.128 142.581C397.459 142.849 396.656 142.983 395.854 143.117C395.051 143.117 394.248 143.117 393.446 142.983C392.643 142.849 391.84 142.581 391.038 142.18C390.235 141.778 389.566 141.242 388.764 140.706C387.961 140.036 387.292 139.367 386.757 138.563C386.088 137.626 385.553 136.688 385.152 135.616C384.884 135.081 384.216 134.947 383.814 135.215C383.547 135.348 383.413 135.482 383.279 135.75C383.145 136.018 383.279 136.286 383.279 136.554C383.814 137.759 384.483 138.965 385.286 140.036C385.955 140.974 386.891 141.912 387.827 142.581C389.566 143.921 391.573 144.724 393.713 144.992C395.72 145.26 397.726 144.858 399.599 143.921C401.472 142.983 402.943 141.51 403.88 139.635C404.682 138.161 405.084 136.554 405.217 134.947C405.485 132.67 405.084 130.527 404.549 128.25C404.415 127.848 404.013 127.446 403.612 127.446C403.88 127.58 403.88 127.58 403.746 127.58ZM386.757 138.161C386.757 138.295 386.891 138.295 386.757 138.161C386.757 138.295 386.891 138.295 386.757 138.161ZM391.172 142.046C391.172 142.046 391.305 142.046 391.305 142.18C391.305 142.18 391.305 142.046 391.172 142.046Z" fill="#197967"/>
<path d="M420.868 119.811C420.6 119.811 420.333 120.079 420.199 120.213C420.065 120.347 419.932 120.749 420.065 121.017C420.333 121.82 420.6 122.49 420.734 123.294C420.868 123.963 421.002 124.633 421.002 125.303C421.002 126.24 421.002 127.312 420.868 128.25C420.734 129.053 420.467 129.723 420.199 130.393C419.932 131.062 419.53 131.598 418.995 132.268C418.594 132.804 418.059 133.205 417.524 133.607C416.989 134.009 416.454 134.277 415.785 134.545C415.25 134.679 414.581 134.813 413.912 134.947C413.243 134.947 412.708 134.947 412.039 134.813C411.37 134.679 410.835 134.411 410.166 134.143C409.498 133.741 408.829 133.339 408.294 132.937C407.625 132.268 406.956 131.598 406.421 130.794C405.886 129.991 405.351 129.187 404.949 128.25C404.682 127.714 404.013 127.58 403.612 127.848C403.077 128.116 402.943 128.651 403.21 129.187C404.281 131.598 405.886 133.875 408.16 135.348C409.096 135.884 410.033 136.42 411.103 136.688C411.638 136.822 412.173 136.956 412.708 136.956C413.243 136.956 413.778 136.956 414.313 136.956C416.32 136.822 418.193 135.75 419.664 134.411C420.467 133.741 421.002 132.804 421.537 131.866C421.804 131.33 422.072 130.794 422.206 130.393C422.473 129.857 422.607 129.187 422.607 128.517C422.875 127.312 422.741 126.106 422.741 125.035C422.607 123.562 422.206 122.222 421.671 120.749C421.537 120.481 421.537 120.213 421.269 120.079C421.136 119.945 420.868 119.945 420.734 119.945C421.002 119.811 421.002 119.811 420.868 119.811ZM408.561 133.071L408.695 133.205C408.695 133.071 408.561 133.071 408.561 133.071ZM410.434 134.277C410.434 134.277 410.568 134.277 410.434 134.277C410.434 134.277 410.568 134.277 410.434 134.277ZM416.186 134.411H416.052C416.052 134.545 416.186 134.411 416.186 134.411Z" fill="#197967"/>
<path d="M377.259 29.2664C375.922 29.2664 374.45 29.2664 372.979 29.4003C372.31 29.4003 371.775 29.4003 371.106 29.5342C366.959 29.8021 362.545 30.3379 357.863 31.1415C353.047 32.0791 348.098 33.1507 343.014 34.758C333.651 37.5708 324.019 41.3211 314.522 46.1431C309.973 48.4201 305.425 50.965 301.412 53.3759C297.132 55.9208 292.851 58.8675 288.303 62.2161C284.958 64.761 281.48 67.4398 278.136 70.3866C280.678 68.7793 283.086 67.172 285.36 65.8325C290.443 62.7519 295.794 60.073 301.278 57.5281C304.088 56.1887 307.03 54.9832 309.84 53.9117C311.445 53.242 313.05 52.7062 314.655 52.0365C316.127 51.5007 317.732 50.831 319.203 50.2953C326.695 47.6164 332.714 45.6073 338.333 44.1339C345.556 42.1248 352.111 40.7854 358.398 39.9817C360.94 39.7138 363.214 39.446 365.354 39.312C367.494 39.1781 369.501 39.1781 371.507 39.1781C373.648 39.1781 375.654 39.312 377.795 39.446C383.547 39.8478 389.165 40.7854 394.516 42.2587C400.134 43.866 405.485 45.8752 410.434 48.4201C415.518 51.0989 420.333 54.1796 424.614 57.6621C426.62 59.2694 428.895 61.2785 431.169 63.4216C433.443 65.5646 435.717 67.8417 437.723 70.1187C441.87 74.6727 445.883 79.6286 449.629 84.8523C453.241 89.8082 456.585 95.0319 459.795 100.524C461.668 103.604 463.14 106.283 464.477 108.828C466.083 111.775 467.42 114.721 468.758 117.534C471.433 123.428 473.707 129.455 475.446 135.348C475.848 136.554 476.115 137.893 476.517 139.099C476.115 136.152 475.58 133.071 474.778 129.589C473.574 124.633 471.968 119.677 469.962 114.186C466.484 105.078 461.802 95.7016 455.782 85.522C453.374 81.3698 450.565 77.0837 447.489 72.6636C444.947 69.0471 442.272 65.4307 439.596 62.0822C433.844 54.8493 428.092 49.0898 421.939 44.2679C418.862 41.8569 415.384 39.5799 411.772 37.5708C408.294 35.6956 404.549 34.0883 400.402 32.7488C393.446 30.4718 385.687 29.2664 377.259 29.2664Z" fill="#4ABBB6"/>
<path d="M103.835 104.274C103.433 104.408 103.166 104.676 102.898 104.944C102.631 105.346 102.631 105.747 102.765 106.149C103.166 108.024 103.567 109.766 103.835 111.507C104.236 113.382 104.504 115.257 104.771 117.132C104.771 116.999 104.771 116.999 104.771 116.865C105.306 121.017 105.708 125.035 105.708 129.187C105.708 131.196 105.574 133.339 105.574 135.349C105.44 137.492 105.173 139.635 104.905 141.778V141.51C104.637 143.385 104.37 145.126 103.969 147.002C103.567 148.877 103.166 150.752 102.631 152.627C101.561 156.377 100.357 160.128 98.8853 163.744C98.484 164.548 98.2165 165.486 97.8152 166.289C97.6814 166.423 97.8152 166.691 97.9489 166.825C98.0827 166.959 98.3503 166.825 98.484 166.691C100.223 162.941 101.828 159.19 103.166 155.306C104.504 151.556 105.708 147.671 106.51 143.653C107.313 139.769 107.982 135.75 108.383 131.732C108.784 127.714 108.784 123.696 108.517 119.677C108.383 117.266 108.115 114.855 107.714 112.444C107.313 110.034 106.778 107.489 106.109 105.078C105.841 104.408 105.306 103.872 104.637 103.872C104.102 104.14 103.969 104.14 103.835 104.274Z" fill="#4ABBB6"/>
<path d="M98.7511 114.32C98.216 114.453 97.9485 114.989 98.0823 115.525C98.4836 117.132 98.7511 118.74 99.0186 120.347C99.5537 125.035 99.42 129.857 98.7511 134.545C98.4836 136.152 98.216 137.893 97.9485 139.501C97.9485 139.769 98.0823 140.036 98.3498 140.17C98.6173 140.304 98.8849 140.036 99.0186 139.769C99.8213 135.75 100.49 131.732 100.758 127.58C100.891 125.437 101.025 123.428 100.891 121.285C100.891 120.213 100.758 119.275 100.624 118.204C100.49 117.132 100.356 116.061 100.089 114.989C99.955 114.587 99.5537 114.186 99.1524 114.186C98.8849 114.186 98.7511 114.32 98.7511 114.32ZM98.8849 120.079V120.213C98.8849 120.213 98.8849 120.213 98.8849 120.079Z" fill="#4ABBB6"/>
<path d="M33.2044 133.473C32.8031 133.607 32.5356 133.875 32.268 134.143C32.0005 134.545 32.0005 134.947 32.1343 135.348C32.268 135.884 32.6693 136.286 33.2044 136.42C34.5421 136.822 35.746 137.358 36.95 137.893C38.8227 138.697 40.6955 139.635 42.4345 140.572C44.3073 141.51 46.0463 142.581 47.7853 143.653C49.5243 144.724 51.2633 145.796 53.0023 147.001C54.7413 148.207 56.4803 149.412 58.0856 150.752L57.9518 150.618C60.4934 152.493 62.9013 154.502 65.1753 156.645C67.5832 158.788 69.9911 160.931 72.3989 163.074C72.5327 163.208 72.8002 163.208 72.934 163.074C73.0678 162.941 73.0678 162.673 72.934 162.539C70.1248 159.86 67.3157 157.315 64.5065 154.77C61.6973 152.225 58.7544 149.68 55.8115 147.269C52.8685 144.858 49.7918 142.581 46.7151 140.438C43.5047 138.295 40.1604 136.42 36.8162 134.813C36.0136 134.411 35.211 134.009 34.2746 133.607C34.2746 133.607 34.1408 133.607 34.007 133.473C33.8733 133.473 33.7395 133.473 33.6057 133.473C33.472 133.473 33.3382 133.473 33.2044 133.473Z" fill="#4ABBB6"/>
</g>
<defs>
<filter id="filter0_d_273_27" x="0.639652" y="0" width="491.193" height="325.721" filterUnits="userSpaceOnUse" color-interpolation-filters="sRGB">
<feFlood flood-opacity="0" result="BackgroundImageFix"/>
<feColorMatrix in="SourceAlpha" type="matrix" values="0 0 0 0 0 0 0 0 0 0 0 0 0 0 0 0 0 0 127 0" result="hardAlpha"/>
<feOffset dy="4.36035"/>
<feGaussianBlur stdDeviation="2.18017"/>
<feComposite in2="hardAlpha" operator="out"/>
<feColorMatrix type="matrix" values="0 0 0 0 0 0 0 0 0 0 0 0 0 0 0 0 0 0 0.25 0"/>
<feBlend mode="normal" in2="BackgroundImageFix" result="effect1_dropShadow_273_27"/>
<feBlend mode="normal" in="SourceGraphic" in2="effect1_dropShadow_273_27" result="shape"/>
</filter>
<filter id="filter1_d_273_27" x="18.0437" y="11.72" width="472.162" height="313.101" filterUnits="userSpaceOnUse" color-interpolation-filters="sRGB">
<feFlood flood-opacity="0" result="BackgroundImageFix"/>
<feColorMatrix in="SourceAlpha" type="matrix" values="0 0 0 0 0 0 0 0 0 0 0 0 0 0 0 0 0 0 127 0" result="hardAlpha"/>
<feOffset dy="4.19141"/>
<feGaussianBlur stdDeviation="2.09571"/>
<feComposite in2="hardAlpha" operator="out"/>
<feColorMatrix type="matrix" values="0 0 0 0 0 0 0 0 0 0 0 0 0 0 0 0 0 0 0.25 0"/>
<feBlend mode="normal" in2="BackgroundImageFix" result="effect1_dropShadow_273_27"/>
<feBlend mode="normal" in="SourceGraphic" in2="effect1_dropShadow_273_27" result="shape"/>
</filter>
<clipPath id="clip0_273_27">
<rect width="17.8815" height="17.8815" fill="white" transform="translate(529.665 43.3882) rotate(-160.87)"/>
</clipPath>
<clipPath id="clip1_273_27">
<rect width="21.2313" height="21.2313" fill="white" transform="translate(555.139 83.6853) rotate(-160.87)"/>
</clipPath>
<clipPath id="clip2_273_27">
<rect width="33.4983" height="33.4983" fill="white" transform="translate(524.656 99.5792) rotate(-160.87)"/>
</clipPath>
<clipPath id="clip3_273_27">
<rect width="482.472" height="317" fill="white" transform="translate(5)"/>
</clipPath>
<clipPath id="clip4_273_27">
<rect width="463.779" height="304.718" fill="white" transform="translate(22.2351 11.72)"/>
</clipPath>
</defs>
</svg>
